<svg xmlns="http://www.w3.org/2000/svg" xmlns:xlink="http://www.w3.org/1999/xlink" width="552" zoomAndPan="magnify" viewBox="0 0 414 48" height="64" preserveAspectRatio="xMidYMid meet" version="1.0"><defs><clipPath id="9ab9134085"><path d="M 221.570312 0.136719 L 409.304688 0.136719 L 409.304688 46.285156 L 221.570312 46.285156 Z M 221.570312 0.136719 " clip-rule="nonzero"/></clipPath><clipPath id="31c30aa0a2"><path d="M 4.222656 0.136719 L 192 0.136719 L 192 46.285156 L 4.222656 46.285156 Z M 4.222656 0.136719 " clip-rule="nonzero"/></clipPath></defs><g clip-path="url(#9ab9134085)"><path fill="#00f9ff" d="M 300.769531 20.664062 L 324.753906 44.640625 L 409.304688 44.640625 L 409.304688 46.359375 L 324.398438 46.359375 C 324.160156 46.359375 323.957031 46.277344 323.789062 46.109375 L 298.363281 20.664062 L 226.574219 20.664062 C 226.507812 20.855469 226.417969 21.035156 226.308594 21.203125 C 226.199219 21.375 226.074219 21.527344 225.925781 21.667969 C 225.78125 21.808594 225.621094 21.929688 225.449219 22.03125 C 225.273438 22.132812 225.089844 22.214844 224.898438 22.273438 C 224.703125 22.332031 224.507812 22.367188 224.304688 22.382812 C 224.105469 22.394531 223.90625 22.382812 223.707031 22.347656 C 223.507812 22.316406 223.316406 22.257812 223.128906 22.179688 C 222.941406 22.101562 222.769531 22 222.605469 21.878906 C 222.445312 21.761719 222.296875 21.625 222.167969 21.46875 C 222.039062 21.316406 221.929688 21.148438 221.835938 20.96875 C 221.746094 20.789062 221.679688 20.597656 221.632812 20.402344 C 221.585938 20.207031 221.5625 20.007812 221.5625 19.804688 C 221.5625 19.605469 221.585938 19.40625 221.632812 19.207031 C 221.679688 19.011719 221.746094 18.824219 221.835938 18.644531 C 221.929688 18.464844 222.039062 18.296875 222.167969 18.140625 C 222.296875 17.988281 222.445312 17.851562 222.605469 17.730469 C 222.769531 17.609375 222.941406 17.511719 223.128906 17.433594 C 223.316406 17.351562 223.507812 17.296875 223.707031 17.261719 C 223.90625 17.226562 224.105469 17.21875 224.304688 17.230469 C 224.507812 17.242188 224.703125 17.277344 224.898438 17.339844 C 225.089844 17.398438 225.273438 17.476562 225.449219 17.582031 C 225.621094 17.683594 225.78125 17.804688 225.925781 17.941406 C 226.074219 18.082031 226.199219 18.238281 226.308594 18.40625 C 226.417969 18.574219 226.507812 18.757812 226.574219 18.945312 L 298.703125 18.945312 C 298.894531 18.945312 299.066406 19.003906 299.21875 19.117188 L 299.21875 18.945312 L 375.152344 18.945312 L 361.445312 5.238281 C 361.261719 5.324219 361.074219 5.390625 360.875 5.433594 C 360.679688 5.476562 360.480469 5.496094 360.277344 5.492188 C 360.074219 5.488281 359.875 5.460938 359.679688 5.410156 C 359.484375 5.359375 359.300781 5.285156 359.121094 5.191406 C 358.941406 5.09375 358.777344 4.980469 358.625 4.847656 C 358.476562 4.714844 358.339844 4.566406 358.222656 4.402344 C 358.109375 4.238281 358.011719 4.0625 357.9375 3.875 C 357.859375 3.6875 357.808594 3.492188 357.777344 3.292969 C 357.75 3.09375 357.742188 2.894531 357.757812 2.691406 C 357.777344 2.492188 357.816406 2.292969 357.878906 2.101562 C 357.941406 1.910156 358.027344 1.730469 358.132812 1.558594 C 358.238281 1.386719 358.363281 1.230469 358.507812 1.085938 C 358.648438 0.945312 358.804688 0.820312 358.976562 0.714844 C 359.148438 0.609375 359.332031 0.523438 359.523438 0.460938 C 359.714844 0.398438 359.910156 0.355469 360.113281 0.339844 C 360.3125 0.324219 360.511719 0.328125 360.714844 0.359375 C 360.914062 0.386719 361.105469 0.441406 361.292969 0.515625 C 361.480469 0.589844 361.65625 0.6875 361.820312 0.804688 C 361.984375 0.921875 362.136719 1.054688 362.269531 1.207031 C 362.402344 1.359375 362.515625 1.523438 362.609375 1.699219 C 362.703125 1.878906 362.777344 2.066406 362.828125 2.261719 C 362.878906 2.457031 362.90625 2.65625 362.910156 2.855469 C 362.914062 3.058594 362.894531 3.257812 362.851562 3.457031 C 362.8125 3.652344 362.746094 3.84375 362.660156 4.023438 L 377.839844 19.203125 C 378.109375 19.476562 378.167969 19.789062 378.023438 20.140625 C 377.878906 20.492188 377.613281 20.671875 377.230469 20.671875 Z M 300.769531 20.664062 " fill-opacity="1" fill-rule="evenodd"/></g><g clip-path="url(#31c30aa0a2)"><path fill="#00f9ff" d="M 112.761719 20.664062 L 88.777344 44.640625 L 4.222656 44.640625 L 4.222656 46.359375 L 89.132812 46.359375 C 89.371094 46.359375 89.574219 46.277344 89.742188 46.109375 L 115.167969 20.664062 L 186.957031 20.664062 C 187.023438 20.855469 187.113281 21.035156 187.222656 21.203125 C 187.332031 21.375 187.457031 21.527344 187.605469 21.667969 C 187.75 21.808594 187.910156 21.929688 188.082031 22.03125 C 188.257812 22.132812 188.441406 22.214844 188.632812 22.273438 C 188.828125 22.332031 189.023438 22.367188 189.226562 22.382812 C 189.425781 22.394531 189.625 22.382812 189.824219 22.347656 C 190.023438 22.316406 190.214844 22.257812 190.402344 22.179688 C 190.585938 22.101562 190.761719 22 190.925781 21.878906 C 191.085938 21.761719 191.230469 21.625 191.363281 21.46875 C 191.492188 21.316406 191.601562 21.148438 191.695312 20.96875 C 191.785156 20.789062 191.851562 20.597656 191.898438 20.402344 C 191.945312 20.207031 191.96875 20.007812 191.96875 19.804688 C 191.96875 19.605469 191.945312 19.40625 191.898438 19.207031 C 191.851562 19.011719 191.785156 18.824219 191.695312 18.644531 C 191.601562 18.464844 191.492188 18.296875 191.363281 18.140625 C 191.230469 17.988281 191.085938 17.851562 190.925781 17.730469 C 190.761719 17.609375 190.585938 17.511719 190.402344 17.433594 C 190.214844 17.351562 190.023438 17.296875 189.824219 17.261719 C 189.625 17.226562 189.425781 17.21875 189.226562 17.230469 C 189.023438 17.242188 188.828125 17.277344 188.632812 17.339844 C 188.441406 17.398438 188.257812 17.476562 188.082031 17.582031 C 187.910156 17.683594 187.75 17.804688 187.605469 17.941406 C 187.457031 18.082031 187.332031 18.238281 187.222656 18.40625 C 187.113281 18.574219 187.023438 18.757812 186.957031 18.945312 L 114.828125 18.945312 C 114.636719 18.945312 114.464844 19.003906 114.3125 19.117188 L 114.3125 18.945312 L 38.378906 18.945312 L 52.085938 5.238281 C 52.269531 5.324219 52.457031 5.390625 52.65625 5.433594 C 52.851562 5.476562 53.050781 5.496094 53.253906 5.492188 C 53.457031 5.488281 53.65625 5.460938 53.851562 5.410156 C 54.046875 5.359375 54.230469 5.285156 54.410156 5.191406 C 54.589844 5.09375 54.753906 4.980469 54.90625 4.847656 C 55.054688 4.714844 55.191406 4.566406 55.308594 4.402344 C 55.421875 4.238281 55.519531 4.0625 55.59375 3.875 C 55.667969 3.6875 55.722656 3.492188 55.753906 3.292969 C 55.78125 3.09375 55.789062 2.894531 55.773438 2.691406 C 55.753906 2.492188 55.714844 2.292969 55.652344 2.101562 C 55.589844 1.910156 55.503906 1.730469 55.398438 1.558594 C 55.292969 1.386719 55.167969 1.230469 55.023438 1.085938 C 54.882812 0.945312 54.726562 0.820312 54.554688 0.714844 C 54.382812 0.609375 54.199219 0.523438 54.007812 0.460938 C 53.816406 0.398438 53.621094 0.355469 53.417969 0.339844 C 53.21875 0.324219 53.015625 0.328125 52.816406 0.359375 C 52.617188 0.386719 52.425781 0.441406 52.238281 0.515625 C 52.050781 0.589844 51.875 0.6875 51.710938 0.804688 C 51.546875 0.921875 51.394531 1.054688 51.261719 1.207031 C 51.128906 1.359375 51.015625 1.523438 50.921875 1.699219 C 50.828125 1.878906 50.753906 2.066406 50.703125 2.261719 C 50.652344 2.457031 50.625 2.65625 50.621094 2.855469 C 50.617188 3.058594 50.636719 3.257812 50.679688 3.457031 C 50.71875 3.652344 50.785156 3.84375 50.871094 4.023438 L 35.691406 19.203125 C 35.421875 19.476562 35.363281 19.789062 35.507812 20.140625 C 35.652344 20.492188 35.917969 20.671875 36.300781 20.671875 Z M 112.761719 20.664062 " fill-opacity="1" fill-rule="evenodd"/></g></svg>