<svg xmlns="http://www.w3.org/2000/svg" xmlns:xlink="http://www.w3.org/1999/xlink" width="225" zoomAndPan="magnify" viewBox="0 0 168.75 131.999998" height="176" preserveAspectRatio="xMidYMid meet" version="1.0"><defs><clipPath id="9caf2ec0f5"><path d="M 57.195312 43.230469 L 70.320312 43.230469 L 70.320312 56.355469 L 57.195312 56.355469 Z M 57.195312 43.230469 " clip-rule="nonzero"/></clipPath><clipPath id="e639d615d8"><path d="M 63.757812 43.230469 C 60.132812 43.230469 57.195312 46.167969 57.195312 49.792969 C 57.195312 53.417969 60.132812 56.355469 63.757812 56.355469 C 67.382812 56.355469 70.320312 53.417969 70.320312 49.792969 C 70.320312 46.167969 67.382812 43.230469 63.757812 43.230469 Z M 63.757812 43.230469 " clip-rule="nonzero"/></clipPath><clipPath id="04333b73af"><path d="M 0 1 L 124 1 L 124 131.902344 L 0 131.902344 Z M 0 1 " clip-rule="nonzero"/></clipPath><clipPath id="1143b3d4cf"><path d="M 54 0.0976562 L 146 0.0976562 L 146 100 L 54 100 Z M 54 0.0976562 " clip-rule="nonzero"/></clipPath><clipPath id="6e5a949c4d"><path d="M 109 5 L 168.5 5 L 168.5 72 L 109 72 Z M 109 5 " clip-rule="nonzero"/></clipPath></defs><g clip-path="url(#9caf2ec0f5)"><g clip-path="url(#e639d615d8)"><path fill="#19b1f7" d="M 57.195312 43.230469 L 70.320312 43.230469 L 70.320312 56.355469 L 57.195312 56.355469 Z M 57.195312 43.230469 " fill-opacity="1" fill-rule="nonzero"/></g></g><g clip-path="url(#04333b73af)"><path fill="#004aad" d="M 41.46875 43.796875 C 71.195312 77.632812 91.882812 112.707031 102.089844 131.738281 C 109.027344 124.347656 116.410156 115.871094 123.683594 107.109375 C 116.128906 94.347656 103.03125 73.632812 85.992188 51.851562 C 72.597656 34.699219 56.746094 16.898438 39.179688 1.761719 C 25.472656 1.964844 12.386719 2.585938 0.125 3.753906 C 15.390625 16.066406 29.195312 29.828125 41.46875 43.796875 " fill-opacity="1" fill-rule="nonzero"/></g><g clip-path="url(#1143b3d4cf)"><path fill="#5271ff" d="M 98.558594 52.019531 C 112.445312 70.949219 123.445312 88.605469 129.917969 99.523438 C 135.472656 92.683594 140.890625 85.8125 145.949219 79.300781 C 142.628906 72.132812 137.105469 61.253906 129.074219 48.453125 C 120.011719 34.015625 107.78125 17.148438 91.769531 0.300781 C 82.832031 0.164062 66.320312 0.0976562 54.46875 1.21875 C 70.753906 16.390625 85.859375 34.726562 98.558594 52.019531 " fill-opacity="1" fill-rule="nonzero"/></g><g clip-path="url(#6e5a949c4d)"><path fill="#38b6ff" d="M 139.136719 45.960938 C 145.226562 56.359375 149.542969 65.558594 152.035156 71.371094 C 158.484375 62.910156 164.035156 55.425781 168.117188 49.886719 C 166.832031 46.582031 164.910156 42.316406 162.164062 37.355469 C 157.25 28.496094 149.648438 17.410156 137.902344 5.394531 L 109.082031 6.605469 C 121.765625 18.96875 131.769531 33.351562 139.136719 45.960938 " fill-opacity="1" fill-rule="nonzero"/></g></svg>