<svg xmlns="http://www.w3.org/2000/svg" xmlns:xlink="http://www.w3.org/1999/xlink" width="241" zoomAndPan="magnify" viewBox="0 0 180.75 180.749997" height="241" preserveAspectRatio="xMidYMid meet" version="1.0"><defs><clipPath id="f4d53eab91"><path d="M 83.578125 146.097656 L 96.703125 146.097656 L 96.703125 159.222656 L 83.578125 159.222656 Z M 83.578125 146.097656 " clip-rule="nonzero"/></clipPath><clipPath id="5e22e54cd5"><path d="M 90.140625 146.097656 C 86.515625 146.097656 83.578125 149.035156 83.578125 152.660156 C 83.578125 156.285156 86.515625 159.222656 90.140625 159.222656 C 93.765625 159.222656 96.703125 156.285156 96.703125 152.660156 C 96.703125 149.035156 93.765625 146.097656 90.140625 146.097656 Z M 90.140625 146.097656 " clip-rule="nonzero"/></clipPath><clipPath id="8e43a7228d"><path d="M 0 0 L 180.5 0 L 180.5 180.5 L 0 180.5 Z M 0 0 " clip-rule="nonzero"/></clipPath></defs><g clip-path="url(#f4d53eab91)"><g clip-path="url(#5e22e54cd5)"><path fill="#19b1f7" d="M 83.578125 146.097656 L 96.703125 146.097656 L 96.703125 159.222656 L 83.578125 159.222656 Z M 83.578125 146.097656 " fill-opacity="1" fill-rule="nonzero"/></g></g><g clip-path="url(#8e43a7228d)"><path fill="#ffbd59" d="M 63.300781 137.597656 C 76.820312 133.535156 87.25 132.691406 106.476562 145.351562 L 130.734375 140.085938 C 137.613281 138.582031 139.023438 143.46875 140.121094 147.019531 L 110.316406 162.109375 C 107.941406 163.628906 109.566406 166.15625 111.472656 165.292969 L 143.449219 149.230469 L 144.292969 145.976562 L 171.242188 127.09375 C 177.386719 122.796875 178.851562 127.660156 180.277344 130.953125 L 150.714844 160.886719 L 119.171875 177.132812 C 114.984375 179.273438 110.847656 180.023438 106.183594 179.507812 L 63.300781 174.644531 Z M 0 137.195312 L 59.585938 137.195312 L 59.585938 180.277344 L 0 180.277344 Z M 121.167969 63.265625 C 124.296875 54.445312 128.210938 47.402344 128.15625 47.128906 C 127.09375 42.480469 121.257812 38.328125 115.058594 40.414062 C 113.976562 37.027344 110.191406 35.015625 106.328125 34.6875 C 102.488281 35.015625 98.683594 37.027344 97.601562 40.414062 C 91.402344 38.328125 85.566406 42.480469 84.503906 47.128906 C 84.449219 47.402344 88.601562 54.882812 91.765625 64.070312 C 74.480469 71.53125 62.148438 90.925781 62.148438 113.683594 C 62.148438 121.019531 63.152344 127.203125 64.945312 132.4375 C 68.183594 131.558594 71.476562 130.863281 74.824219 130.570312 C 86.957031 129.507812 97.421875 134.191406 107.355469 140.542969 L 129.765625 135.65625 C 134.046875 134.742188 138.234375 135.4375 141.164062 138.894531 C 141.859375 139.699219 142.40625 140.558594 142.847656 141.472656 L 147.566406 138.164062 C 150.878906 131.90625 152.816406 123.875 152.816406 113.683594 C 152.816406 111.03125 152.652344 108.398438 152.324219 105.835938 C 151.132812 106.019531 149.910156 106.109375 148.664062 106.109375 C 135.054688 106.109375 124.019531 95.078125 124.019531 81.46875 C 124.019531 76.050781 125.757812 71.039062 128.722656 66.960938 C 126.328125 65.476562 123.800781 64.234375 121.167969 63.265625 Z M 107.484375 89.167969 C 119.8125 89.167969 129.820312 99.175781 129.820312 111.527344 C 129.820312 123.855469 119.8125 133.863281 107.484375 133.863281 C 95.152344 133.863281 85.144531 123.855469 85.144531 111.527344 C 85.144531 99.175781 95.152344 89.167969 107.484375 89.167969 Z M 109.53125 93.632812 L 109.53125 97.492188 C 111.398438 97.878906 112.824219 98.792969 113.886719 100 C 115.167969 101.5 115.789062 103.421875 115.808594 105.359375 C 115.824219 105.578125 115.808594 105.761719 115.808594 105.925781 L 111.726562 105.726562 C 111.726562 105.597656 111.726562 105.488281 111.726562 105.414062 C 111.726562 104.390625 111.398438 103.402344 110.777344 102.671875 C 110.171875 101.957031 109.21875 101.464844 107.886719 101.410156 C 107.738281 101.390625 107.59375 101.390625 107.484375 101.390625 C 106.21875 101.410156 105.25 101.847656 104.574219 102.488281 C 104.0625 102.980469 103.714844 103.605469 103.511719 104.246094 C 103.347656 104.882812 103.328125 105.5625 103.496094 106.148438 C 103.660156 106.75 103.988281 107.261719 104.535156 107.59375 L 108.378906 109.734375 L 112.367188 111.835938 L 112.457031 111.890625 C 114.015625 112.804688 115 114.214844 115.421875 115.808594 C 115.789062 117.125 115.769531 118.53125 115.386719 119.886719 C 115 121.222656 114.289062 122.503906 113.207031 123.507812 C 112.238281 124.441406 111.011719 125.136719 109.53125 125.484375 L 109.53125 129.398438 L 105.433594 129.398438 L 105.433594 125.539062 C 103.585938 125.15625 102.140625 124.242188 101.078125 123.035156 C 99.796875 121.550781 99.175781 119.613281 99.160156 117.671875 C 99.140625 117.472656 99.160156 117.289062 99.160156 117.125 L 103.238281 117.308594 C 103.238281 117.433594 103.238281 117.542969 103.238281 117.636719 C 103.238281 118.640625 103.566406 119.648438 104.191406 120.378906 C 104.792969 121.074219 105.746094 121.570312 107.082031 121.644531 C 107.246094 121.644531 107.371094 121.644531 107.484375 121.644531 C 108.746094 121.625 109.714844 121.203125 110.390625 120.546875 C 110.902344 120.070312 111.25 119.449219 111.453125 118.789062 C 111.617188 118.148438 111.636719 117.488281 111.472656 116.886719 C 111.304688 116.300781 110.976562 115.789062 110.445312 115.460938 L 106.441406 113.320312 L 106.421875 113.320312 L 102.5625 111.179688 L 102.507812 111.160156 C 100.953125 110.226562 99.964844 108.816406 99.542969 107.226562 C 99.175781 105.925781 99.195312 104.5 99.578125 103.148438 C 99.964844 101.8125 100.675781 100.546875 101.757812 99.523438 C 102.726562 98.609375 103.953125 97.894531 105.433594 97.546875 L 105.433594 93.632812 Z M 156.183594 0 C 162.84375 0 168.863281 2.6875 173.214844 7.0625 C 177.589844 11.417969 180.277344 17.433594 180.277344 24.09375 C 180.277344 30.753906 177.589844 36.773438 173.214844 41.125 C 168.863281 45.5 162.84375 48.1875 156.183594 48.1875 C 149.523438 48.1875 143.503906 45.5 139.152344 41.125 C 134.777344 36.773438 132.089844 30.753906 132.089844 24.09375 C 132.089844 17.433594 134.777344 11.417969 139.152344 7.0625 C 143.503906 2.6875 149.523438 0 156.183594 0 Z M 161.875 30.496094 C 161.5625 32.035156 161.269531 33.570312 161.066406 34.886719 C 160.886719 36.207031 160.8125 37.320312 160.738281 38.417969 C 160.429688 37.761719 160.117188 37.101562 159.789062 36.609375 C 159.441406 36.132812 159.054688 35.804688 158.671875 35.472656 C 158.195312 36.222656 157.703125 36.992188 157.574219 37.449219 C 157.445312 37.90625 157.664062 38.054688 157.921875 39.753906 C 158.050781 40.632812 158.195312 41.949219 158.34375 43.449219 C 157.648438 43.542969 156.914062 43.578125 156.183594 43.578125 C 155.453125 43.578125 154.71875 43.542969 154.007812 43.449219 C 154.171875 41.949219 154.316406 40.632812 154.445312 39.753906 C 154.703125 38.054688 154.921875 37.90625 154.792969 37.449219 C 154.648438 36.992188 154.171875 36.222656 153.695312 35.472656 C 153.3125 35.804688 152.925781 36.132812 152.578125 36.609375 C 152.25 37.101562 151.9375 37.761719 151.628906 38.417969 C 151.554688 37.320312 151.480469 36.207031 151.300781 34.886719 C 151.097656 33.570312 150.785156 32.035156 150.476562 30.496094 C 149.726562 31.175781 148.957031 31.851562 147.675781 32.511719 C 146.394531 33.167969 143.03125 33.789062 141.710938 34.707031 C 141.273438 35.015625 140.890625 35.347656 140.558594 35.730469 C 138.125 32.472656 136.699219 28.449219 136.699219 24.09375 C 136.699219 18.714844 138.875 13.847656 142.40625 10.316406 C 145.9375 6.804688 150.804688 4.609375 156.183594 4.609375 C 161.5625 4.609375 166.429688 6.804688 169.960938 10.316406 C 173.472656 13.847656 175.667969 18.714844 175.667969 24.09375 C 175.667969 28.449219 174.222656 32.472656 171.808594 35.730469 C 171.476562 35.347656 171.09375 35.015625 170.65625 34.707031 C 169.335938 33.789062 165.972656 33.167969 164.691406 32.511719 C 163.390625 31.851562 162.640625 31.175781 161.875 30.496094 Z M 160.097656 27.699219 L 160.097656 30.003906 C 160.097656 30.425781 159.933594 30.789062 159.585938 31.046875 L 155.855469 33.902344 L 152.140625 31.046875 C 151.792969 30.789062 151.628906 30.425781 151.628906 30.003906 L 151.628906 27.644531 L 151.316406 27.332031 C 150.785156 26.765625 150.492188 26.105469 150.4375 25.320312 L 150.367188 24.003906 L 150.347656 24.003906 C 150.074219 23.910156 149.855469 23.820312 149.6875 23.691406 C 149.523438 23.546875 149.414062 23.382812 149.285156 23.015625 C 149.160156 22.667969 149.011719 22.136719 148.921875 21.660156 C 148.8125 21.183594 148.757812 20.765625 148.71875 20.417969 C 148.699219 20.050781 148.699219 19.738281 148.792969 19.484375 C 148.882812 19.246094 149.101562 19.0625 149.269531 19.007812 C 149.433594 18.953125 149.507812 18.988281 149.578125 18.972656 C 149.652344 18.953125 149.542969 18.917969 149.542969 18.878906 L 149.542969 18.824219 C 149.523438 18.808594 149.507812 18.789062 149.488281 18.769531 C 148.902344 17.984375 148.445312 16.429688 148.316406 15.058594 C 148.1875 13.667969 148.390625 12.457031 148.589844 11.234375 C 148.976562 11.472656 149.339844 11.707031 150.035156 11.34375 C 150.714844 10.976562 151.71875 10.007812 152.855469 9.332031 C 154.007812 8.652344 155.269531 8.289062 156.605469 8.34375 C 157.921875 8.414062 159.277344 8.910156 160.042969 9.566406 C 160.8125 10.226562 161.011719 11.050781 161.195312 11.875 C 161.800781 11.855469 162.402344 11.835938 162.824219 12.53125 C 163.265625 13.246094 163.519531 14.652344 163.429688 15.898438 C 163.320312 17.140625 162.859375 18.222656 162.386719 18.769531 C 162.347656 18.824219 162.292969 18.878906 162.257812 18.917969 L 162.257812 18.953125 C 162.367188 18.972656 162.476562 18.988281 162.585938 19.027344 C 162.824219 19.117188 163.027344 19.265625 163.136719 19.558594 C 163.226562 19.851562 163.207031 20.269531 163.171875 20.691406 C 163.136719 21.113281 163.082031 21.515625 162.972656 21.9375 C 162.878906 22.355469 162.734375 22.796875 162.605469 23.089844 C 162.476562 23.398438 162.367188 23.5625 162.203125 23.710938 C 162.039062 23.839844 161.820312 23.929688 161.5625 24.019531 C 161.507812 24.019531 161.453125 24.039062 161.398438 24.058594 L 161.324219 25.339844 C 161.269531 26.105469 160.976562 26.765625 160.445312 27.332031 Z M 48.628906 0 C 56.421875 0 63.484375 3.164062 68.605469 8.269531 C 73.710938 13.375 76.855469 20.433594 76.855469 28.230469 C 76.855469 36.023438 73.710938 43.085938 68.605469 48.1875 C 63.484375 53.292969 56.421875 56.457031 48.628906 56.457031 C 40.835938 56.457031 33.773438 53.292969 28.667969 48.1875 C 23.5625 43.085938 20.398438 36.023438 20.398438 28.230469 C 20.398438 20.433594 23.5625 13.375 28.667969 8.269531 C 33.773438 3.164062 40.835938 0 48.628906 0 Z M 55.304688 35.730469 C 54.941406 37.542969 54.59375 39.335938 54.355469 40.871094 C 54.132812 42.425781 54.0625 43.726562 53.988281 45.003906 C 53.621094 44.238281 53.257812 43.46875 52.855469 42.902344 C 52.453125 42.316406 51.992188 41.933594 51.554688 41.546875 C 50.988281 42.445312 50.421875 43.339844 50.273438 43.871094 C 50.109375 44.402344 50.367188 44.585938 50.660156 46.578125 C 50.824219 47.621094 50.988281 49.140625 51.171875 50.914062 C 50.347656 51.007812 49.488281 51.042969 48.628906 51.042969 C 47.769531 51.042969 46.925781 51.007812 46.101562 50.914062 C 46.269531 49.140625 46.449219 47.621094 46.597656 46.578125 C 46.90625 44.585938 47.164062 44.402344 47 43.871094 C 46.851562 43.339844 46.285156 42.445312 45.71875 41.546875 C 45.261719 41.933594 44.824219 42.316406 44.421875 42.902344 C 44.015625 43.46875 43.652344 44.238281 43.285156 45.003906 C 43.210938 43.726562 43.121094 42.425781 42.902344 40.871094 C 42.683594 39.335938 42.316406 37.542969 41.949219 35.730469 C 41.070312 36.535156 40.175781 37.320312 38.675781 38.089844 C 37.175781 38.839844 33.222656 39.589844 31.667969 40.667969 C 31.175781 41.015625 30.71875 41.402344 30.316406 41.859375 C 27.496094 38.054688 25.8125 33.332031 25.8125 28.230469 C 25.8125 21.9375 28.375 16.226562 32.492188 12.09375 C 36.625 7.957031 42.335938 5.414062 48.628906 5.414062 C 54.941406 5.414062 60.648438 7.957031 64.765625 12.09375 C 68.898438 16.226562 71.460938 21.9375 71.460938 28.230469 C 71.460938 33.332031 69.777344 38.054688 66.941406 41.859375 C 66.558594 41.402344 66.097656 41.015625 65.585938 40.667969 C 64.03125 39.589844 60.097656 38.839844 58.597656 38.089844 C 57.082031 37.320312 56.203125 36.535156 55.304688 35.730469 Z M 53.238281 32.4375 L 53.238281 35.144531 C 53.238281 35.636719 53.019531 36.078125 52.632812 36.371094 L 48.261719 39.71875 L 43.890625 36.371094 C 43.503906 36.078125 43.285156 35.636719 43.285156 35.144531 L 43.285156 32.382812 L 42.9375 32.015625 C 42.316406 31.359375 41.96875 30.589844 41.914062 29.675781 L 41.804688 28.121094 L 41.785156 28.121094 C 41.472656 28.027344 41.21875 27.917969 41.015625 27.753906 C 40.835938 27.589844 40.707031 27.386719 40.558594 26.964844 C 40.414062 26.5625 40.25 25.941406 40.121094 25.375 C 40.011719 24.828125 39.9375 24.332031 39.902344 23.910156 C 39.863281 23.492188 39.863281 23.125 39.972656 22.832031 C 40.066406 22.558594 40.339844 22.320312 40.542969 22.265625 C 40.722656 22.210938 40.816406 22.246094 40.90625 22.226562 C 40.980469 22.210938 40.871094 22.15625 40.851562 22.117188 L 40.851562 22.0625 C 40.835938 22.027344 40.816406 22.007812 40.796875 21.992188 C 40.101562 21.058594 39.570312 19.246094 39.425781 17.636719 C 39.277344 16.007812 39.515625 14.582031 39.753906 13.152344 C 40.195312 13.429688 40.632812 13.703125 41.4375 13.28125 C 42.242188 12.84375 43.414062 11.707031 44.730469 10.921875 C 46.066406 10.152344 47.566406 9.714844 49.121094 9.789062 C 50.660156 9.859375 52.25 10.445312 53.164062 11.214844 C 54.0625 11.984375 54.28125 12.933594 54.5 13.902344 C 55.214844 13.886719 55.910156 13.867188 56.421875 14.691406 C 56.933594 15.515625 57.246094 17.179688 57.117188 18.640625 C 57.007812 20.085938 56.457031 21.351562 55.910156 22.007812 C 55.855469 22.0625 55.800781 22.117188 55.746094 22.15625 L 55.746094 22.210938 C 55.890625 22.210938 56.019531 22.246094 56.148438 22.300781 C 56.421875 22.394531 56.660156 22.574219 56.769531 22.90625 C 56.878906 23.253906 56.878906 23.746094 56.824219 24.242188 C 56.789062 24.734375 56.714844 25.210938 56.605469 25.703125 C 56.476562 26.199219 56.3125 26.691406 56.164062 27.058594 C 56.019531 27.40625 55.890625 27.605469 55.691406 27.773438 C 55.507812 27.9375 55.230469 28.046875 54.921875 28.136719 C 54.867188 28.15625 54.8125 28.175781 54.757812 28.191406 L 54.648438 29.691406 C 54.59375 30.589844 54.261719 31.359375 53.640625 32.015625 Z M 24.09375 67.214844 C 30.753906 67.214844 36.773438 69.90625 41.125 74.277344 C 45.5 78.632812 48.1875 84.652344 48.1875 91.308594 C 48.1875 97.96875 45.5 103.988281 41.125 108.34375 C 36.773438 112.714844 30.753906 115.402344 24.09375 115.402344 C 17.433594 115.402344 11.417969 112.714844 7.0625 108.34375 C 2.6875 103.988281 0 97.96875 0 91.308594 C 0 84.652344 2.6875 78.632812 7.0625 74.277344 C 11.417969 69.90625 17.433594 67.214844 24.09375 67.214844 Z M 29.800781 97.714844 C 29.492188 99.25 29.179688 100.785156 28.980469 102.105469 C 28.796875 103.421875 28.722656 104.519531 28.648438 105.636719 C 28.355469 104.976562 28.046875 104.316406 27.699219 103.824219 C 27.351562 103.328125 26.964844 103.019531 26.582031 102.6875 C 26.105469 103.4375 25.632812 104.207031 25.484375 104.664062 C 25.355469 105.105469 25.578125 105.269531 25.832031 106.96875 C 25.960938 107.847656 26.105469 109.164062 26.273438 110.664062 C 25.558594 110.738281 24.828125 110.792969 24.09375 110.792969 C 23.363281 110.792969 22.648438 110.738281 21.9375 110.664062 C 22.082031 109.164062 22.226562 107.847656 22.355469 106.96875 C 22.613281 105.269531 22.832031 105.105469 22.703125 104.664062 C 22.574219 104.207031 22.082031 103.4375 21.605469 102.6875 C 21.222656 103.019531 20.839844 103.328125 20.507812 103.824219 C 20.160156 104.316406 19.851562 104.976562 19.539062 105.636719 C 19.464844 104.519531 19.394531 103.421875 19.210938 102.105469 C 19.027344 100.785156 18.714844 99.25 18.40625 97.714844 C 17.636719 98.390625 16.886719 99.066406 15.585938 99.726562 C 14.304688 100.367188 10.941406 101.007812 9.625 101.921875 C 9.183594 102.214844 8.800781 102.542969 8.46875 102.925781 C 6.054688 99.6875 4.609375 95.664062 4.609375 91.308594 C 4.609375 85.929688 6.804688 81.066406 10.316406 77.535156 C 13.847656 74.019531 18.714844 71.824219 24.09375 71.824219 C 29.472656 71.824219 34.339844 74.019531 37.871094 77.535156 C 41.402344 81.066406 43.578125 85.929688 43.578125 91.308594 C 43.578125 95.664062 42.152344 99.6875 39.71875 102.925781 C 39.390625 102.542969 39.003906 102.214844 38.566406 101.921875 C 37.25 101.007812 33.882812 100.367188 32.601562 99.726562 C 31.320312 99.066406 30.550781 98.390625 29.800781 97.714844 Z M 28.027344 94.894531 L 28.027344 97.21875 C 28.027344 97.640625 27.84375 98.003906 27.515625 98.261719 L 23.785156 101.117188 L 20.050781 98.261719 C 19.703125 98.003906 19.539062 97.640625 19.539062 97.21875 L 19.539062 94.859375 L 19.246094 94.546875 C 18.699219 93.980469 18.40625 93.324219 18.367188 92.535156 L 18.277344 91.21875 L 18.257812 91.199219 C 17.984375 91.125 17.765625 91.035156 17.601562 90.90625 C 17.433594 90.761719 17.324219 90.578125 17.195312 90.230469 C 17.070312 89.882812 16.921875 89.351562 16.832031 88.875 C 16.722656 88.402344 16.667969 87.980469 16.648438 87.613281 C 16.613281 87.25 16.613281 86.9375 16.703125 86.699219 C 16.792969 86.460938 17.015625 86.261719 17.179688 86.222656 C 17.34375 86.167969 17.433594 86.207031 17.488281 86.1875 C 17.5625 86.167969 17.453125 86.113281 17.453125 86.078125 L 17.453125 86.039062 C 17.433594 86.023438 17.417969 86.003906 17.417969 85.984375 C 16.8125 85.199219 16.355469 83.644531 16.226562 82.273438 C 16.097656 80.882812 16.300781 79.675781 16.503906 78.449219 C 16.886719 78.6875 17.253906 78.925781 17.949219 78.539062 C 18.640625 78.175781 19.628906 77.222656 20.765625 76.546875 C 21.917969 75.867188 23.199219 75.503906 24.515625 75.558594 C 25.832031 75.632812 27.1875 76.125 27.953125 76.785156 C 28.742188 77.441406 28.925781 78.265625 29.105469 79.089844 C 29.710938 79.070312 30.316406 79.050781 30.734375 79.746094 C 31.175781 80.460938 31.449219 81.871094 31.339844 83.113281 C 31.246094 84.359375 30.773438 85.4375 30.296875 85.984375 C 30.261719 86.039062 30.203125 86.078125 30.167969 86.132812 L 30.167969 86.167969 C 30.277344 86.167969 30.40625 86.207031 30.496094 86.242188 C 30.734375 86.332031 30.9375 86.480469 31.046875 86.773438 C 31.136719 87.066406 31.136719 87.484375 31.101562 87.90625 C 31.046875 88.308594 30.992188 88.730469 30.898438 89.152344 C 30.789062 89.570312 30.644531 90.011719 30.515625 90.304688 C 30.40625 90.597656 30.296875 90.78125 30.113281 90.925781 C 29.949219 91.054688 29.730469 91.144531 29.472656 91.21875 C 29.417969 91.238281 29.363281 91.253906 29.308594 91.273438 L 29.234375 92.554688 C 29.179688 93.324219 28.90625 93.980469 28.355469 94.546875 Z M 148.664062 62 C 137.925781 62 129.199219 70.726562 129.199219 81.46875 C 129.199219 92.207031 137.925781 100.914062 148.664062 100.914062 C 159.402344 100.914062 168.113281 92.207031 168.113281 81.46875 C 168.113281 70.726562 159.402344 62 148.664062 62 Z M 145.519531 69.777344 L 151.8125 69.777344 L 151.8125 78.320312 L 160.335938 78.320312 L 160.335938 84.613281 L 151.8125 84.613281 L 151.8125 93.140625 L 145.519531 93.140625 L 145.519531 84.613281 L 136.972656 84.613281 L 136.972656 78.320312 L 145.519531 78.320312 Z M 145.519531 69.777344 " fill-opacity="1" fill-rule="evenodd"/></g></svg>