<svg xmlns="http://www.w3.org/2000/svg" xmlns:xlink="http://www.w3.org/1999/xlink" width="232" zoomAndPan="magnify" viewBox="0 0 174 190.499994" height="254" preserveAspectRatio="xMidYMid meet" version="1.0"><defs><clipPath id="531998c4a8"><path d="M 73.617188 68.550781 L 86.726562 68.550781 L 86.726562 81.660156 L 73.617188 81.660156 Z M 73.617188 68.550781 " clip-rule="nonzero"/></clipPath><clipPath id="8d123271d7"><path d="M 80.171875 68.550781 C 76.554688 68.550781 73.617188 71.488281 73.617188 75.105469 C 73.617188 78.726562 76.554688 81.660156 80.171875 81.660156 C 83.792969 81.660156 86.726562 78.726562 86.726562 75.105469 C 86.726562 71.488281 83.792969 68.550781 80.171875 68.550781 Z M 80.171875 68.550781 " clip-rule="nonzero"/></clipPath><clipPath id="a57568f618"><path d="M 91 68 L 98 68 L 98 189.253906 L 91 189.253906 Z M 91 68 " clip-rule="nonzero"/></clipPath><clipPath id="4ad7d71fc8"><path d="M 76 68 L 98 68 L 98 189.253906 L 76 189.253906 Z M 76 68 " clip-rule="nonzero"/></clipPath><clipPath id="3c81717e9b"><path d="M 0.226562 148 L 50 148 L 50 183 L 0.226562 183 Z M 0.226562 148 " clip-rule="nonzero"/></clipPath><clipPath id="007ce52fde"><path d="M 0.226562 139 L 50 139 L 50 173 L 0.226562 173 Z M 0.226562 139 " clip-rule="nonzero"/></clipPath><clipPath id="8309a457eb"><path d="M 0.226562 129 L 50 129 L 50 164 L 0.226562 164 Z M 0.226562 129 " clip-rule="nonzero"/></clipPath><clipPath id="517458fd78"><path d="M 0.226562 117 L 50 117 L 50 152 L 0.226562 152 Z M 0.226562 117 " clip-rule="nonzero"/></clipPath><clipPath id="a8fc490f76"><path d="M 0.226562 108 L 50 108 L 50 142 L 0.226562 142 Z M 0.226562 108 " clip-rule="nonzero"/></clipPath></defs><g clip-path="url(#531998c4a8)"><g clip-path="url(#8d123271d7)"><path fill="#19b1f7" d="M 73.617188 68.550781 L 86.726562 68.550781 L 86.726562 81.660156 L 73.617188 81.660156 Z M 73.617188 68.550781 " fill-opacity="1" fill-rule="nonzero"/></g></g><path fill="#383838" d="M 93.96875 169.046875 L 29.59375 150.808594 C 24.859375 149.472656 21.164062 144.039062 21.164062 138.632812 L 21.164062 33.15625 C 21.164062 27.753906 24.863281 22.320312 29.59375 20.980469 L 93.96875 2.746094 C 102.117188 0.4375 109.0625 4.601562 109.0625 12.160156 L 109.0625 159.632812 C 109.0625 167.191406 102.117188 171.351562 93.96875 169.046875 Z M 93.96875 169.046875 " fill-opacity="1" fill-rule="nonzero"/><path fill="#ffffff" d="M 105.089844 14.808594 L 105.089844 154.234375 C 105.089844 161.289062 98.679688 165.304688 91.136719 163.300781 L 31.285156 147.359375 C 26.738281 146.152344 23.183594 141.019531 23.183594 135.859375 L 23.183594 33.921875 C 23.183594 28.984375 26.4375 24.050781 30.6875 22.535156 L 36.695312 26.683594 L 80.222656 15.925781 L 91.136719 5.878906 C 98.679688 3.792969 105.089844 7.75 105.089844 14.808594 Z M 105.089844 14.808594 " fill-opacity="1" fill-rule="nonzero"/><path fill="#383838" d="M 97.84375 6.007812 L 97.832031 163.8125 L 103.351562 163.8125 C 103.351562 163.8125 105.414062 163.808594 107.238281 141.550781 C 109.066406 119.292969 107.238281 6.203125 107.238281 6.203125 C 107.238281 6.203125 99.769531 -0.0117188 97.84375 6.007812 Z M 97.84375 6.007812 " fill-opacity="1" fill-rule="nonzero"/><g clip-path="url(#a57568f618)"><path fill="#ff0000" d="M 96.6875 69.054688 C 95.890625 69.230469 95.15625 69.652344 94.550781 70.285156 C 93.65625 71.214844 93.15625 72.507812 93.125 73.925781 L 91.179688 184.070312 C 91.15625 185.535156 91.640625 186.859375 92.539062 187.808594 C 93.023438 188.3125 93.59375 188.679688 94.21875 188.882812 C 94.753906 189.058594 95.332031 189.121094 95.917969 189.058594 L 97.84375 188.855469 L 97.84375 68.96875 C 97.449219 68.941406 97.0625 68.96875 96.6875 69.054688 Z M 96.6875 69.054688 " fill-opacity="1" fill-rule="nonzero"/></g><path fill="#ff0000" d="M 171.90625 179.515625 C 171.195312 180.535156 170.238281 181.15625 169.199219 181.269531 L 97.84375 188.855469 L 97.84375 68.96875 L 166.050781 73.570312 C 168.089844 73.707031 169.746094 75.839844 169.828125 78.417969 L 172.933594 175.921875 C 172.984375 177.226562 172.617188 178.5 171.90625 179.515625 Z M 171.90625 179.515625 " fill-opacity="1" fill-rule="nonzero"/><path fill="#ff0000" d="M 155.128906 72.835938 L 151.402344 72.585938 C 148.691406 59.875 145.84375 50.199219 142.914062 43.824219 C 141.210938 40.117188 138.574219 35.605469 135.707031 35.253906 L 135.683594 35.253906 C 133.261719 34.972656 130.910156 37.683594 129.347656 40.019531 C 127.320312 43.066406 125.265625 47.476562 123.242188 53.125 C 120.855469 59.800781 119.101562 66.617188 118.210938 70.351562 L 114.023438 70.070312 C 114.820312 66.632812 116.753906 58.808594 119.5625 51 C 121.726562 44.976562 123.964844 40.230469 126.210938 36.886719 C 129.257812 32.347656 132.4375 30.265625 135.65625 30.664062 L 135.699219 30.667969 C 137.585938 30.914062 139.425781 32 141.171875 33.902344 C 142.863281 35.75 144.527344 38.4375 146.097656 41.886719 C 149.261719 48.792969 152.292969 59.214844 155.128906 72.835938 Z M 155.128906 72.835938 " fill-opacity="1" fill-rule="nonzero"/><g clip-path="url(#4ad7d71fc8)"><path fill="#ce0000" d="M 97.84375 68.96875 L 97.84375 189.257812 L 95.921875 189.054688 L 95.917969 189.058594 L 94.21875 188.882812 L 79.175781 187.316406 L 76.890625 70.523438 L 96.6875 69.054688 Z M 97.84375 68.96875 " fill-opacity="1" fill-rule="nonzero"/></g><path fill="#ffffff" d="M 111.625 122.078125 C 109.824219 120.128906 108.925781 117.523438 108.925781 114.257812 C 108.925781 110.996094 109.824219 108.386719 111.625 106.4375 C 113.425781 104.492188 115.753906 103.515625 118.609375 103.515625 C 121.46875 103.515625 123.789062 104.492188 125.566406 106.4375 C 127.347656 108.386719 128.238281 110.996094 128.238281 114.257812 C 128.238281 117.523438 127.347656 120.128906 125.566406 122.078125 C 123.78125 124.027344 121.464844 125 118.609375 125 C 115.753906 125 113.425781 124.027344 111.625 122.078125 Z M 121.589844 118.882812 C 122.3125 117.847656 122.675781 116.304688 122.675781 114.265625 C 122.675781 112.226562 122.3125 110.679688 121.589844 109.644531 C 120.867188 108.609375 119.875 108.085938 118.609375 108.085938 C 117.386719 108.085938 116.398438 108.613281 115.660156 109.667969 C 114.917969 110.726562 114.546875 112.253906 114.546875 114.257812 C 114.546875 116.261719 114.917969 117.789062 115.660156 118.847656 C 116.398438 119.90625 117.386719 120.433594 118.609375 120.433594 C 119.875 120.4375 120.867188 119.917969 121.589844 118.882812 Z M 141.824219 103.96875 L 148.453125 103.96875 L 121.847656 142.917969 L 115.21875 142.917969 Z M 140.070312 142.058594 C 138.605469 141.183594 137.460938 139.933594 136.648438 138.296875 C 135.832031 136.664062 135.421875 134.773438 135.421875 132.621094 C 135.421875 130.46875 135.832031 128.574219 136.648438 126.941406 C 137.460938 125.308594 138.605469 124.058594 140.070312 123.183594 C 141.535156 122.3125 143.199219 121.871094 145.050781 121.871094 C 147.910156 121.871094 150.234375 122.847656 152.035156 124.792969 C 153.835938 126.742188 154.734375 129.351562 154.734375 132.613281 C 154.734375 135.878906 153.835938 138.484375 152.035156 140.433594 C 150.234375 142.382812 147.90625 143.355469 145.050781 143.355469 C 143.199219 143.367188 141.535156 142.929688 140.070312 142.058594 Z M 148.03125 137.214844 C 148.753906 136.15625 149.117188 134.628906 149.117188 132.625 C 149.117188 130.621094 148.757812 129.09375 148.03125 128.035156 C 147.304688 126.976562 146.316406 126.453125 145.050781 126.453125 C 143.824219 126.453125 142.839844 126.96875 142.097656 128.011719 C 141.359375 129.046875 140.988281 130.59375 140.988281 132.632812 C 140.988281 134.671875 141.359375 136.214844 142.097656 137.25 C 142.839844 138.285156 143.824219 138.808594 145.050781 138.808594 C 146.316406 138.800781 147.304688 138.273438 148.03125 137.214844 Z M 148.03125 137.214844 " fill-opacity="1" fill-rule="nonzero"/><path fill="#ff8b00" d="M 67.023438 96.277344 C 68.097656 96.375 69.023438 95.613281 69.160156 94.5 L 71.851562 72.882812 C 71.933594 72.222656 71.734375 71.589844 71.300781 71.144531 C 70.875 70.707031 70.257812 70.507812 69.621094 70.585938 L 41.964844 74.089844 L 41.964844 67 L 37.492188 67.90625 C 37.253906 67.957031 37.0625 68.261719 37.0625 68.59375 C 37.0625 68.925781 37.253906 69.15625 37.492188 69.113281 L 41.019531 68.445312 L 41.019531 93.128906 L 37.664062 97.734375 L 42.152344 98.335938 C 41.675781 98.960938 41.390625 99.828125 41.390625 100.824219 C 41.390625 102.949219 42.707031 104.941406 44.382812 105.277344 C 46.113281 105.628906 47.570312 104.082031 47.570312 101.820312 C 47.570312 100.753906 47.246094 99.742188 46.71875 98.9375 L 61.078125 100.851562 C 60.390625 101.585938 59.980469 102.617188 59.980469 103.820312 C 59.980469 106.363281 61.882812 108.824219 64.320312 109.320312 C 66.863281 109.832031 69.015625 108.027344 69.015625 105.277344 C 69.015625 103.984375 68.53125 102.730469 67.757812 101.746094 L 69.507812 101.980469 C 69.949219 102.035156 70.316406 101.71875 70.316406 101.261719 C 70.316406 100.804688 69.949219 100.394531 69.507812 100.339844 L 39.703125 96.78125 L 41.710938 94.0625 Z M 61.757812 75.433594 C 61.757812 75.011719 62.078125 74.636719 62.464844 74.597656 C 62.859375 74.554688 63.183594 74.871094 63.183594 75.300781 L 63.183594 90.421875 C 63.183594 90.851562 62.863281 91.1875 62.464844 91.164062 C 62.070312 91.148438 61.757812 90.789062 61.757812 90.367188 Z M 56.902344 75.882812 C 56.902344 75.480469 57.195312 75.121094 57.554688 75.085938 C 57.917969 75.050781 58.207031 75.355469 58.207031 75.765625 L 58.207031 90.230469 C 58.207031 90.640625 57.914062 90.957031 57.554688 90.941406 C 57.195312 90.925781 56.902344 90.582031 56.902344 90.179688 Z M 52.449219 76.292969 C 52.449219 75.90625 52.714844 75.566406 53.046875 75.53125 C 53.378906 75.496094 53.652344 75.785156 53.652344 76.179688 L 53.652344 90.042969 C 53.652344 90.433594 53.378906 90.742188 53.046875 90.726562 C 52.714844 90.707031 52.449219 90.382812 52.449219 89.996094 Z M 48.347656 76.675781 C 48.347656 76.300781 48.59375 75.976562 48.898438 75.945312 C 49.207031 75.917969 49.457031 76.195312 49.457031 76.574219 L 49.457031 89.882812 C 49.457031 90.257812 49.207031 90.554688 48.898438 90.539062 C 48.597656 90.527344 48.347656 90.207031 48.347656 89.835938 Z M 44.558594 77.027344 C 44.558594 76.667969 44.785156 76.355469 45.066406 76.328125 C 45.351562 76.300781 45.578125 76.574219 45.578125 76.929688 L 45.578125 89.730469 C 45.578125 90.09375 45.34375 90.371094 45.066406 90.359375 C 44.785156 90.347656 44.558594 90.046875 44.558594 89.6875 Z M 44.558594 77.027344 " fill-opacity="1" fill-rule="nonzero"/><path fill="#ff8b00" d="M 48.632812 165.710938 C 48.632812 166.21875 48.59375 166.730469 48.519531 167.238281 C 48.441406 167.746094 48.328125 168.25 48.179688 168.75 C 48.027344 169.25 47.839844 169.746094 47.617188 170.234375 C 47.390625 170.722656 47.132812 171.203125 46.835938 171.675781 C 46.539062 172.144531 46.210938 172.605469 45.84375 173.058594 C 45.480469 173.507812 45.085938 173.945312 44.65625 174.371094 C 44.226562 174.792969 43.765625 175.203125 43.273438 175.597656 C 42.785156 175.992188 42.265625 176.371094 41.71875 176.730469 C 41.171875 177.09375 40.601562 177.433594 40.003906 177.757812 C 39.40625 178.082031 38.785156 178.386719 38.144531 178.671875 C 37.5 178.953125 36.839844 179.214844 36.15625 179.457031 C 35.476562 179.695312 34.777344 179.914062 34.066406 180.109375 C 33.351562 180.304688 32.625 180.476562 31.882812 180.625 C 31.144531 180.773438 30.394531 180.898438 29.636719 180.996094 C 28.878906 181.097656 28.117188 181.171875 27.347656 181.222656 C 26.578125 181.273438 25.808594 181.296875 25.035156 181.296875 C 24.261719 181.296875 23.492188 181.273438 22.722656 181.222656 C 21.953125 181.171875 21.1875 181.097656 20.429688 180.996094 C 19.671875 180.898438 18.921875 180.773438 18.183594 180.625 C 17.445312 180.476562 16.71875 180.304688 16.003906 180.109375 C 15.289062 179.914062 14.59375 179.695312 13.910156 179.457031 C 13.230469 179.214844 12.566406 178.953125 11.925781 178.671875 C 11.28125 178.386719 10.660156 178.082031 10.0625 177.757812 C 9.464844 177.433594 8.894531 177.09375 8.347656 176.730469 C 7.800781 176.371094 7.285156 175.992188 6.792969 175.597656 C 6.300781 175.203125 5.84375 174.792969 5.414062 174.371094 C 4.984375 173.945312 4.585938 173.507812 4.222656 173.058594 C 3.859375 172.605469 3.527344 172.144531 3.234375 171.675781 C 2.9375 171.203125 2.675781 170.722656 2.453125 170.234375 C 2.226562 169.746094 2.039062 169.25 1.890625 168.75 C 1.738281 168.25 1.625 167.746094 1.550781 167.238281 C 1.472656 166.730469 1.4375 166.21875 1.4375 165.710938 C 1.4375 165.199219 1.472656 164.6875 1.550781 164.179688 C 1.625 163.671875 1.738281 163.167969 1.890625 162.667969 C 2.039062 162.167969 2.226562 161.671875 2.453125 161.183594 C 2.675781 160.695312 2.9375 160.214844 3.234375 159.742188 C 3.527344 159.273438 3.859375 158.8125 4.222656 158.359375 C 4.585938 157.910156 4.984375 157.472656 5.414062 157.050781 C 5.84375 156.625 6.300781 156.214844 6.792969 155.820312 C 7.285156 155.425781 7.800781 155.046875 8.347656 154.6875 C 8.894531 154.324219 9.464844 153.984375 10.0625 153.660156 C 10.660156 153.335938 11.28125 153.03125 11.925781 152.75 C 12.566406 152.464844 13.230469 152.203125 13.910156 151.960938 C 14.59375 151.722656 15.289062 151.503906 16.003906 151.308594 C 16.71875 151.113281 17.445312 150.941406 18.183594 150.792969 C 18.921875 150.644531 19.671875 150.519531 20.429688 150.421875 C 21.1875 150.320312 21.953125 150.246094 22.722656 150.195312 C 23.492188 150.144531 24.261719 150.121094 25.035156 150.121094 C 25.808594 150.121094 26.578125 150.144531 27.347656 150.195312 C 28.117188 150.246094 28.878906 150.320312 29.636719 150.421875 C 30.394531 150.519531 31.144531 150.644531 31.882812 150.792969 C 32.625 150.941406 33.351562 151.113281 34.066406 151.308594 C 34.777344 151.503906 35.476562 151.722656 36.15625 151.960938 C 36.839844 152.203125 37.5 152.464844 38.144531 152.75 C 38.785156 153.03125 39.40625 153.335938 40.003906 153.660156 C 40.601562 153.984375 41.171875 154.324219 41.71875 154.6875 C 42.265625 155.046875 42.785156 155.425781 43.273438 155.820312 C 43.765625 156.214844 44.226562 156.625 44.65625 157.050781 C 45.085938 157.472656 45.480469 157.910156 45.84375 158.359375 C 46.210938 158.8125 46.539062 159.273438 46.835938 159.742188 C 47.132812 160.214844 47.390625 160.695312 47.617188 161.183594 C 47.839844 161.671875 48.027344 162.167969 48.179688 162.667969 C 48.328125 163.167969 48.441406 163.671875 48.519531 164.179688 C 48.59375 164.6875 48.632812 165.199219 48.632812 165.710938 Z M 48.632812 165.710938 " fill-opacity="1" fill-rule="nonzero"/><g clip-path="url(#3c81717e9b)"><path fill="#ffffff" d="M 25.035156 182.476562 C 18.503906 182.476562 12.347656 180.785156 7.699219 177.714844 C 2.902344 174.546875 0.257812 170.28125 0.257812 165.710938 C 0.257812 161.136719 2.902344 156.875 7.699219 153.703125 C 12.347656 150.632812 18.5 148.941406 25.035156 148.941406 C 31.5625 148.941406 37.722656 150.632812 42.371094 153.703125 C 47.167969 156.875 49.8125 161.136719 49.8125 165.710938 C 49.8125 170.28125 47.167969 174.542969 42.371094 177.714844 C 37.722656 180.785156 31.5625 182.476562 25.035156 182.476562 Z M 25.035156 151.300781 C 18.960938 151.300781 13.265625 152.855469 8.996094 155.667969 C 4.882812 158.386719 2.617188 161.957031 2.617188 165.710938 C 2.617188 169.460938 4.882812 173.03125 8.996094 175.75 C 13.265625 178.570312 18.960938 180.117188 25.035156 180.117188 C 31.105469 180.117188 36.804688 178.5625 41.070312 175.75 C 45.183594 173.035156 47.453125 169.460938 47.453125 165.710938 C 47.453125 161.957031 45.183594 158.386719 41.070312 155.667969 C 36.804688 152.855469 31.105469 151.300781 25.035156 151.300781 Z M 25.035156 151.300781 " fill-opacity="1" fill-rule="nonzero"/></g><path fill="#ff8b00" d="M 48.632812 156.167969 C 48.632812 156.679688 48.59375 157.1875 48.519531 157.699219 C 48.441406 158.207031 48.328125 158.710938 48.179688 159.210938 C 48.027344 159.710938 47.839844 160.207031 47.617188 160.695312 C 47.390625 161.183594 47.132812 161.664062 46.835938 162.136719 C 46.539062 162.605469 46.210938 163.066406 45.84375 163.519531 C 45.480469 163.96875 45.085938 164.40625 44.65625 164.828125 C 44.226562 165.253906 43.765625 165.664062 43.273438 166.058594 C 42.785156 166.453125 42.265625 166.832031 41.71875 167.191406 C 41.171875 167.554688 40.601562 167.894531 40.003906 168.21875 C 39.40625 168.542969 38.785156 168.847656 38.144531 169.128906 C 37.5 169.414062 36.839844 169.675781 36.15625 169.917969 C 35.476562 170.15625 34.777344 170.375 34.066406 170.570312 C 33.351562 170.765625 32.625 170.9375 31.882812 171.085938 C 31.144531 171.234375 30.394531 171.359375 29.636719 171.457031 C 28.878906 171.558594 28.117188 171.632812 27.347656 171.683594 C 26.578125 171.734375 25.808594 171.757812 25.035156 171.757812 C 24.261719 171.757812 23.492188 171.734375 22.722656 171.683594 C 21.953125 171.632812 21.1875 171.558594 20.429688 171.457031 C 19.671875 171.359375 18.921875 171.234375 18.183594 171.085938 C 17.445312 170.9375 16.71875 170.765625 16.003906 170.570312 C 15.289062 170.375 14.59375 170.15625 13.910156 169.917969 C 13.230469 169.675781 12.566406 169.414062 11.925781 169.128906 C 11.28125 168.847656 10.660156 168.542969 10.0625 168.21875 C 9.464844 167.894531 8.894531 167.554688 8.347656 167.191406 C 7.800781 166.832031 7.285156 166.453125 6.792969 166.058594 C 6.300781 165.664062 5.84375 165.253906 5.414062 164.828125 C 4.984375 164.40625 4.585938 163.96875 4.222656 163.519531 C 3.859375 163.066406 3.527344 162.605469 3.234375 162.136719 C 2.9375 161.664062 2.675781 161.183594 2.453125 160.695312 C 2.226562 160.207031 2.039062 159.710938 1.890625 159.210938 C 1.738281 158.710938 1.625 158.207031 1.550781 157.699219 C 1.472656 157.1875 1.4375 156.679688 1.4375 156.167969 C 1.4375 155.660156 1.472656 155.148438 1.550781 154.640625 C 1.625 154.132812 1.738281 153.628906 1.890625 153.128906 C 2.039062 152.628906 2.226562 152.132812 2.453125 151.644531 C 2.675781 151.15625 2.9375 150.675781 3.234375 150.203125 C 3.527344 149.734375 3.859375 149.273438 4.222656 148.820312 C 4.585938 148.371094 4.984375 147.933594 5.414062 147.507812 C 5.84375 147.085938 6.300781 146.675781 6.792969 146.28125 C 7.285156 145.886719 7.800781 145.507812 8.347656 145.148438 C 8.894531 144.785156 9.464844 144.445312 10.0625 144.121094 C 10.660156 143.796875 11.28125 143.492188 11.925781 143.207031 C 12.566406 142.925781 13.230469 142.664062 13.910156 142.421875 C 14.59375 142.179688 15.289062 141.964844 16.003906 141.769531 C 16.71875 141.574219 17.445312 141.402344 18.183594 141.253906 C 18.921875 141.105469 19.671875 140.980469 20.429688 140.882812 C 21.1875 140.78125 21.953125 140.707031 22.722656 140.65625 C 23.492188 140.605469 24.261719 140.582031 25.035156 140.582031 C 25.808594 140.582031 26.578125 140.605469 27.347656 140.65625 C 28.117188 140.707031 28.878906 140.78125 29.636719 140.882812 C 30.394531 140.980469 31.144531 141.105469 31.882812 141.253906 C 32.625 141.402344 33.351562 141.574219 34.066406 141.769531 C 34.777344 141.964844 35.476562 142.179688 36.15625 142.421875 C 36.839844 142.664062 37.5 142.925781 38.144531 143.207031 C 38.785156 143.492188 39.40625 143.796875 40.003906 144.121094 C 40.601562 144.445312 41.171875 144.785156 41.71875 145.148438 C 42.265625 145.507812 42.785156 145.886719 43.273438 146.28125 C 43.765625 146.675781 44.226562 147.085938 44.65625 147.507812 C 45.085938 147.933594 45.480469 148.371094 45.84375 148.820312 C 46.210938 149.273438 46.539062 149.734375 46.835938 150.203125 C 47.132812 150.675781 47.390625 151.15625 47.617188 151.644531 C 47.839844 152.132812 48.027344 152.628906 48.179688 153.128906 C 48.328125 153.628906 48.441406 154.132812 48.519531 154.640625 C 48.59375 155.148438 48.632812 155.660156 48.632812 156.167969 Z M 48.632812 156.167969 " fill-opacity="1" fill-rule="nonzero"/><g clip-path="url(#007ce52fde)"><path fill="#ffffff" d="M 25.035156 172.9375 C 18.503906 172.9375 12.347656 171.246094 7.699219 168.175781 C 2.902344 165.007812 0.257812 160.742188 0.257812 156.167969 C 0.257812 151.597656 2.902344 147.335938 7.699219 144.164062 C 12.347656 141.09375 18.5 139.402344 25.035156 139.402344 C 31.5625 139.402344 37.722656 141.09375 42.371094 144.164062 C 47.167969 147.335938 49.8125 151.597656 49.8125 156.167969 C 49.8125 160.742188 47.167969 165.003906 42.371094 168.175781 C 37.722656 171.25 31.5625 172.9375 25.035156 172.9375 Z M 25.035156 141.761719 C 18.960938 141.761719 13.265625 143.316406 8.996094 146.128906 C 4.882812 148.84375 2.617188 152.417969 2.617188 156.167969 C 2.617188 159.921875 4.882812 163.492188 8.996094 166.210938 C 13.265625 169.03125 18.960938 170.578125 25.035156 170.578125 C 31.105469 170.578125 36.804688 169.023438 41.070312 166.210938 C 45.183594 163.492188 47.453125 159.921875 47.453125 156.167969 C 47.453125 152.417969 45.183594 148.84375 41.070312 146.128906 C 36.804688 143.316406 31.105469 141.761719 25.035156 141.761719 Z M 25.035156 141.761719 " fill-opacity="1" fill-rule="nonzero"/></g><path fill="#ff8b00" d="M 48.632812 146.289062 C 48.632812 146.796875 48.59375 147.308594 48.519531 147.816406 C 48.441406 148.324219 48.328125 148.828125 48.179688 149.328125 C 48.027344 149.828125 47.839844 150.324219 47.617188 150.8125 C 47.390625 151.300781 47.132812 151.78125 46.835938 152.253906 C 46.539062 152.726562 46.210938 153.1875 45.84375 153.636719 C 45.480469 154.085938 45.085938 154.523438 44.65625 154.949219 C 44.226562 155.371094 43.765625 155.78125 43.273438 156.175781 C 42.785156 156.570312 42.265625 156.949219 41.71875 157.3125 C 41.171875 157.671875 40.601562 158.015625 40.003906 158.335938 C 39.40625 158.660156 38.785156 158.964844 38.144531 159.25 C 37.5 159.53125 36.839844 159.792969 36.15625 160.035156 C 35.476562 160.277344 34.777344 160.496094 34.066406 160.691406 C 33.351562 160.886719 32.625 161.058594 31.882812 161.203125 C 31.144531 161.351562 30.394531 161.476562 29.636719 161.578125 C 28.878906 161.675781 28.117188 161.75 27.347656 161.800781 C 26.578125 161.851562 25.808594 161.875 25.035156 161.875 C 24.261719 161.875 23.492188 161.851562 22.722656 161.800781 C 21.953125 161.75 21.1875 161.675781 20.429688 161.578125 C 19.671875 161.476562 18.921875 161.351562 18.183594 161.203125 C 17.445312 161.058594 16.71875 160.886719 16.003906 160.691406 C 15.289062 160.496094 14.59375 160.277344 13.910156 160.035156 C 13.230469 159.792969 12.566406 159.53125 11.925781 159.25 C 11.28125 158.964844 10.660156 158.660156 10.0625 158.335938 C 9.464844 158.015625 8.894531 157.671875 8.347656 157.3125 C 7.800781 156.949219 7.285156 156.570312 6.792969 156.175781 C 6.300781 155.78125 5.84375 155.371094 5.414062 154.949219 C 4.984375 154.523438 4.585938 154.085938 4.222656 153.636719 C 3.859375 153.1875 3.527344 152.726562 3.234375 152.253906 C 2.9375 151.78125 2.675781 151.300781 2.453125 150.8125 C 2.226562 150.324219 2.039062 149.828125 1.890625 149.328125 C 1.738281 148.828125 1.625 148.324219 1.550781 147.816406 C 1.472656 147.308594 1.4375 146.796875 1.4375 146.289062 C 1.4375 145.777344 1.472656 145.269531 1.550781 144.761719 C 1.625 144.253906 1.738281 143.746094 1.890625 143.246094 C 2.039062 142.746094 2.226562 142.25 2.453125 141.761719 C 2.675781 141.273438 2.9375 140.792969 3.234375 140.324219 C 3.527344 139.851562 3.859375 139.390625 4.222656 138.941406 C 4.585938 138.488281 4.984375 138.050781 5.414062 137.628906 C 5.84375 137.203125 6.300781 136.792969 6.792969 136.398438 C 7.285156 136.003906 7.800781 135.628906 8.347656 135.265625 C 8.894531 134.90625 9.464844 134.5625 10.0625 134.238281 C 10.660156 133.914062 11.28125 133.609375 11.925781 133.328125 C 12.566406 133.042969 13.230469 132.78125 13.910156 132.539062 C 14.59375 132.300781 15.289062 132.082031 16.003906 131.886719 C 16.71875 131.691406 17.445312 131.519531 18.183594 131.371094 C 18.921875 131.222656 19.671875 131.097656 20.429688 131 C 21.1875 130.898438 21.953125 130.824219 22.722656 130.777344 C 23.492188 130.726562 24.261719 130.699219 25.035156 130.699219 C 25.808594 130.699219 26.578125 130.726562 27.347656 130.777344 C 28.117188 130.824219 28.878906 130.898438 29.636719 131 C 30.394531 131.097656 31.144531 131.222656 31.882812 131.371094 C 32.625 131.519531 33.351562 131.691406 34.066406 131.886719 C 34.777344 132.082031 35.476562 132.300781 36.15625 132.539062 C 36.839844 132.78125 37.5 133.042969 38.144531 133.328125 C 38.785156 133.609375 39.40625 133.914062 40.003906 134.238281 C 40.601562 134.5625 41.171875 134.90625 41.71875 135.265625 C 42.265625 135.628906 42.785156 136.003906 43.273438 136.398438 C 43.765625 136.792969 44.226562 137.203125 44.65625 137.628906 C 45.085938 138.050781 45.480469 138.488281 45.84375 138.941406 C 46.210938 139.390625 46.539062 139.851562 46.835938 140.324219 C 47.132812 140.792969 47.390625 141.273438 47.617188 141.761719 C 47.839844 142.25 48.027344 142.746094 48.179688 143.246094 C 48.328125 143.746094 48.441406 144.253906 48.519531 144.761719 C 48.59375 145.269531 48.632812 145.777344 48.632812 146.289062 Z M 48.632812 146.289062 " fill-opacity="1" fill-rule="nonzero"/><g clip-path="url(#8309a457eb)"><path fill="#ffffff" d="M 25.035156 163.054688 C 18.503906 163.054688 12.347656 161.363281 7.699219 158.292969 C 2.902344 155.128906 0.257812 150.863281 0.257812 146.289062 C 0.257812 141.714844 2.902344 137.453125 7.699219 134.28125 C 12.347656 131.214844 18.5 129.519531 25.035156 129.519531 C 31.5625 129.519531 37.722656 131.214844 42.371094 134.28125 C 47.167969 137.453125 49.8125 141.714844 49.8125 146.289062 C 49.8125 150.863281 47.167969 155.121094 42.371094 158.292969 C 37.722656 161.363281 31.5625 163.054688 25.035156 163.054688 Z M 25.035156 131.878906 C 18.960938 131.878906 13.265625 133.433594 8.996094 136.246094 C 4.882812 138.964844 2.617188 142.535156 2.617188 146.289062 C 2.617188 150.042969 4.882812 153.613281 8.996094 156.328125 C 13.265625 159.148438 18.960938 160.699219 25.035156 160.699219 C 31.105469 160.699219 36.804688 159.140625 41.070312 156.328125 C 45.183594 153.613281 47.453125 150.042969 47.453125 146.289062 C 47.453125 142.535156 45.183594 138.964844 41.070312 136.246094 C 36.804688 133.429688 31.105469 131.878906 25.035156 131.878906 Z M 25.035156 131.878906 " fill-opacity="1" fill-rule="nonzero"/></g><path fill="#ff8b00" d="M 48.632812 134.535156 C 48.632812 135.042969 48.59375 135.554688 48.519531 136.0625 C 48.441406 136.570312 48.328125 137.074219 48.179688 137.574219 C 48.027344 138.074219 47.839844 138.570312 47.617188 139.058594 C 47.390625 139.546875 47.132812 140.027344 46.835938 140.5 C 46.539062 140.96875 46.210938 141.429688 45.84375 141.882812 C 45.480469 142.332031 45.085938 142.769531 44.65625 143.195312 C 44.226562 143.617188 43.765625 144.027344 43.273438 144.421875 C 42.785156 144.816406 42.265625 145.195312 41.71875 145.554688 C 41.171875 145.917969 40.601562 146.257812 40.003906 146.582031 C 39.40625 146.90625 38.785156 147.210938 38.144531 147.492188 C 37.5 147.777344 36.839844 148.039062 36.15625 148.28125 C 35.476562 148.519531 34.777344 148.738281 34.066406 148.933594 C 33.351562 149.128906 32.625 149.300781 31.882812 149.449219 C 31.144531 149.597656 30.394531 149.722656 29.636719 149.820312 C 28.878906 149.921875 28.117188 149.996094 27.347656 150.046875 C 26.578125 150.097656 25.808594 150.121094 25.035156 150.121094 C 24.261719 150.121094 23.492188 150.097656 22.722656 150.046875 C 21.953125 149.996094 21.1875 149.921875 20.429688 149.820312 C 19.671875 149.722656 18.921875 149.597656 18.183594 149.449219 C 17.445312 149.300781 16.71875 149.128906 16.003906 148.933594 C 15.289062 148.738281 14.59375 148.519531 13.910156 148.28125 C 13.230469 148.039062 12.566406 147.777344 11.925781 147.492188 C 11.28125 147.210938 10.660156 146.90625 10.0625 146.582031 C 9.464844 146.257812 8.894531 145.917969 8.347656 145.554688 C 7.800781 145.195312 7.285156 144.816406 6.792969 144.421875 C 6.300781 144.027344 5.84375 143.617188 5.414062 143.195312 C 4.984375 142.769531 4.585938 142.332031 4.222656 141.882812 C 3.859375 141.429688 3.527344 140.96875 3.234375 140.5 C 2.9375 140.027344 2.675781 139.546875 2.453125 139.058594 C 2.226562 138.570312 2.039062 138.074219 1.890625 137.574219 C 1.738281 137.074219 1.625 136.570312 1.550781 136.0625 C 1.472656 135.554688 1.4375 135.042969 1.4375 134.535156 C 1.4375 134.023438 1.472656 133.511719 1.550781 133.003906 C 1.625 132.496094 1.738281 131.992188 1.890625 131.492188 C 2.039062 130.992188 2.226562 130.496094 2.453125 130.007812 C 2.675781 129.519531 2.9375 129.039062 3.234375 128.566406 C 3.527344 128.097656 3.859375 127.636719 4.222656 127.183594 C 4.585938 126.734375 4.984375 126.296875 5.414062 125.875 C 5.84375 125.449219 6.300781 125.039062 6.792969 124.644531 C 7.285156 124.25 7.800781 123.871094 8.347656 123.511719 C 8.894531 123.148438 9.464844 122.808594 10.0625 122.484375 C 10.660156 122.160156 11.28125 121.855469 11.925781 121.574219 C 12.566406 121.289062 13.230469 121.027344 13.910156 120.785156 C 14.59375 120.546875 15.289062 120.328125 16.003906 120.132812 C 16.71875 119.9375 17.445312 119.765625 18.183594 119.617188 C 18.921875 119.46875 19.671875 119.34375 20.429688 119.246094 C 21.1875 119.144531 21.953125 119.070312 22.722656 119.019531 C 23.492188 118.96875 24.261719 118.945312 25.035156 118.945312 C 25.808594 118.945312 26.578125 118.96875 27.347656 119.019531 C 28.117188 119.070312 28.878906 119.144531 29.636719 119.246094 C 30.394531 119.34375 31.144531 119.46875 31.882812 119.617188 C 32.625 119.765625 33.351562 119.9375 34.066406 120.132812 C 34.777344 120.328125 35.476562 120.546875 36.15625 120.785156 C 36.839844 121.027344 37.5 121.289062 38.144531 121.574219 C 38.785156 121.855469 39.40625 122.160156 40.003906 122.484375 C 40.601562 122.808594 41.171875 123.148438 41.71875 123.511719 C 42.265625 123.871094 42.785156 124.25 43.273438 124.644531 C 43.765625 125.039062 44.226562 125.449219 44.65625 125.875 C 45.085938 126.296875 45.480469 126.734375 45.84375 127.183594 C 46.210938 127.636719 46.539062 128.097656 46.835938 128.566406 C 47.132812 129.039062 47.390625 129.519531 47.617188 130.007812 C 47.839844 130.496094 48.027344 130.992188 48.179688 131.492188 C 48.328125 131.992188 48.441406 132.496094 48.519531 133.003906 C 48.59375 133.511719 48.632812 134.023438 48.632812 134.535156 Z M 48.632812 134.535156 " fill-opacity="1" fill-rule="nonzero"/><g clip-path="url(#517458fd78)"><path fill="#ffffff" d="M 25.035156 151.300781 C 18.503906 151.300781 12.347656 149.609375 7.699219 146.539062 C 2.902344 143.371094 0.257812 139.105469 0.257812 134.535156 C 0.257812 129.960938 2.902344 125.699219 7.699219 122.527344 C 12.347656 119.457031 18.5 117.765625 25.035156 117.765625 C 31.5625 117.765625 37.722656 119.457031 42.371094 122.527344 C 47.167969 125.699219 49.8125 129.960938 49.8125 134.535156 C 49.8125 139.105469 47.167969 143.367188 42.371094 146.539062 C 37.722656 149.609375 31.5625 151.300781 25.035156 151.300781 Z M 25.035156 120.125 C 18.960938 120.125 13.265625 121.679688 8.996094 124.492188 C 4.882812 127.210938 2.617188 130.78125 2.617188 134.535156 C 2.617188 138.285156 4.882812 141.855469 8.996094 144.574219 C 13.265625 147.394531 18.960938 148.941406 25.035156 148.941406 C 31.105469 148.941406 36.804688 147.386719 41.070312 144.574219 C 45.183594 141.855469 47.453125 138.285156 47.453125 134.535156 C 47.453125 130.78125 45.183594 127.210938 41.070312 124.492188 C 36.804688 121.671875 31.105469 120.125 25.035156 120.125 Z M 25.035156 120.125 " fill-opacity="1" fill-rule="nonzero"/></g><path fill="#ff8b00" d="M 48.632812 124.992188 C 48.632812 125.503906 48.59375 126.011719 48.519531 126.523438 C 48.441406 127.03125 48.328125 127.535156 48.179688 128.035156 C 48.027344 128.535156 47.839844 129.03125 47.617188 129.519531 C 47.390625 130.007812 47.132812 130.488281 46.835938 130.957031 C 46.539062 131.429688 46.210938 131.890625 45.84375 132.34375 C 45.480469 132.792969 45.085938 133.230469 44.65625 133.652344 C 44.226562 134.078125 43.765625 134.488281 43.273438 134.882812 C 42.785156 135.277344 42.265625 135.65625 41.71875 136.015625 C 41.171875 136.378906 40.601562 136.71875 40.003906 137.042969 C 39.40625 137.367188 38.785156 137.671875 38.144531 137.953125 C 37.5 138.238281 36.839844 138.5 36.15625 138.742188 C 35.476562 138.980469 34.777344 139.199219 34.066406 139.394531 C 33.351562 139.589844 32.625 139.761719 31.882812 139.910156 C 31.144531 140.058594 30.394531 140.183594 29.636719 140.28125 C 28.878906 140.382812 28.117188 140.457031 27.347656 140.507812 C 26.578125 140.554688 25.808594 140.582031 25.035156 140.582031 C 24.261719 140.582031 23.492188 140.554688 22.722656 140.507812 C 21.953125 140.457031 21.1875 140.382812 20.429688 140.28125 C 19.671875 140.183594 18.921875 140.058594 18.183594 139.910156 C 17.445312 139.761719 16.71875 139.589844 16.003906 139.394531 C 15.289062 139.199219 14.59375 138.980469 13.910156 138.742188 C 13.230469 138.5 12.566406 138.238281 11.925781 137.953125 C 11.28125 137.671875 10.660156 137.367188 10.0625 137.042969 C 9.464844 136.71875 8.894531 136.378906 8.347656 136.015625 C 7.800781 135.65625 7.285156 135.277344 6.792969 134.882812 C 6.300781 134.488281 5.84375 134.078125 5.414062 133.652344 C 4.984375 133.230469 4.585938 132.792969 4.222656 132.34375 C 3.859375 131.890625 3.527344 131.429688 3.234375 130.957031 C 2.9375 130.488281 2.675781 130.007812 2.453125 129.519531 C 2.226562 129.03125 2.039062 128.535156 1.890625 128.035156 C 1.738281 127.535156 1.625 127.03125 1.550781 126.523438 C 1.472656 126.011719 1.4375 125.503906 1.4375 124.992188 C 1.4375 124.484375 1.472656 123.972656 1.550781 123.464844 C 1.625 122.957031 1.738281 122.453125 1.890625 121.953125 C 2.039062 121.453125 2.226562 120.957031 2.453125 120.46875 C 2.675781 119.980469 2.9375 119.5 3.234375 119.027344 C 3.527344 118.558594 3.859375 118.097656 4.222656 117.644531 C 4.585938 117.195312 4.984375 116.757812 5.414062 116.332031 C 5.84375 115.910156 6.300781 115.5 6.792969 115.105469 C 7.285156 114.710938 7.800781 114.332031 8.347656 113.972656 C 8.894531 113.609375 9.464844 113.269531 10.0625 112.945312 C 10.660156 112.621094 11.28125 112.316406 11.925781 112.03125 C 12.566406 111.75 13.230469 111.488281 13.910156 111.246094 C 14.59375 111.003906 15.289062 110.789062 16.003906 110.59375 C 16.71875 110.398438 17.445312 110.226562 18.183594 110.078125 C 18.921875 109.929688 19.671875 109.804688 20.429688 109.707031 C 21.1875 109.605469 21.953125 109.53125 22.722656 109.480469 C 23.492188 109.429688 24.261719 109.40625 25.035156 109.40625 C 25.808594 109.40625 26.578125 109.429688 27.347656 109.480469 C 28.117188 109.53125 28.878906 109.605469 29.636719 109.707031 C 30.394531 109.804688 31.144531 109.929688 31.882812 110.078125 C 32.625 110.226562 33.351562 110.398438 34.066406 110.59375 C 34.777344 110.789062 35.476562 111.003906 36.15625 111.246094 C 36.839844 111.488281 37.5 111.75 38.144531 112.03125 C 38.785156 112.316406 39.40625 112.621094 40.003906 112.945312 C 40.601562 113.269531 41.171875 113.609375 41.71875 113.972656 C 42.265625 114.332031 42.785156 114.710938 43.273438 115.105469 C 43.765625 115.5 44.226562 115.910156 44.65625 116.332031 C 45.085938 116.757812 45.480469 117.195312 45.84375 117.644531 C 46.210938 118.097656 46.539062 118.558594 46.835938 119.027344 C 47.132812 119.5 47.390625 119.980469 47.617188 120.46875 C 47.839844 120.957031 48.027344 121.453125 48.179688 121.953125 C 48.328125 122.453125 48.441406 122.957031 48.519531 123.464844 C 48.59375 123.972656 48.632812 124.484375 48.632812 124.992188 Z M 48.632812 124.992188 " fill-opacity="1" fill-rule="nonzero"/><g clip-path="url(#a8fc490f76)"><path fill="#ffffff" d="M 25.035156 141.761719 C 18.503906 141.761719 12.347656 140.070312 7.699219 137 C 2.902344 133.832031 0.257812 129.566406 0.257812 124.992188 C 0.257812 120.421875 2.902344 116.160156 7.699219 112.988281 C 12.347656 109.917969 18.5 108.226562 25.035156 108.226562 C 31.5625 108.226562 37.722656 109.917969 42.371094 112.988281 C 47.167969 116.160156 49.8125 120.421875 49.8125 124.992188 C 49.8125 129.566406 47.167969 133.828125 42.371094 137 C 37.722656 140.070312 31.5625 141.761719 25.035156 141.761719 Z M 25.035156 110.585938 C 18.960938 110.585938 13.265625 112.140625 8.996094 114.953125 C 4.882812 117.667969 2.617188 121.242188 2.617188 124.992188 C 2.617188 128.746094 4.882812 132.316406 8.996094 135.035156 C 13.265625 137.855469 18.960938 139.402344 25.035156 139.402344 C 31.105469 139.402344 36.804688 137.847656 41.070312 135.035156 C 45.183594 132.316406 47.453125 128.746094 47.453125 124.992188 C 47.453125 121.242188 45.183594 117.667969 41.070312 114.953125 C 36.804688 112.132812 31.105469 110.585938 25.035156 110.585938 Z M 25.035156 110.585938 " fill-opacity="1" fill-rule="nonzero"/></g><path fill="#ffffff" d="M 24.5625 135.53125 L 24.5625 133.667969 C 22.230469 133.429688 20.140625 132.503906 18.289062 130.886719 L 20.152344 128.671875 C 21.582031 129.914062 23.046875 130.65625 24.5625 130.886719 L 24.5625 125.945312 C 22.640625 125.484375 21.234375 124.886719 20.34375 124.132812 C 19.449219 123.386719 19.007812 122.277344 19.007812 120.808594 C 19.007812 119.339844 19.519531 118.136719 20.550781 117.203125 C 21.574219 116.269531 22.914062 115.761719 24.566406 115.675781 L 24.566406 114.402344 L 26.195312 114.402344 L 26.195312 115.699219 C 28.066406 115.835938 29.832031 116.472656 31.5 117.613281 L 29.84375 119.960938 C 28.71875 119.160156 27.507812 118.667969 26.195312 118.484375 L 26.195312 123.273438 L 26.269531 123.273438 C 28.222656 123.734375 29.660156 124.351562 30.578125 125.136719 C 31.496094 125.917969 31.957031 127.050781 31.957031 128.535156 C 31.957031 130.023438 31.433594 131.234375 30.378906 132.167969 C 29.324219 133.105469 27.929688 133.617188 26.195312 133.695312 L 26.195312 135.53125 Z M 22.765625 119.082031 C 22.332031 119.464844 22.117188 119.941406 22.117188 120.511719 C 22.117188 121.082031 22.289062 121.53125 22.625 121.863281 C 22.964844 122.191406 23.609375 122.511719 24.5625 122.816406 L 24.5625 118.410156 C 23.796875 118.472656 23.199219 118.699219 22.765625 119.082031 Z M 28.132812 130.257812 C 28.605469 129.863281 28.84375 129.375 28.84375 128.78125 C 28.84375 128.1875 28.65625 127.714844 28.289062 127.367188 C 27.910156 127.019531 27.214844 126.691406 26.195312 126.390625 L 26.195312 130.972656 C 27.011719 130.882812 27.65625 130.644531 28.132812 130.257812 Z M 28.132812 130.257812 " fill-opacity="1" fill-rule="nonzero"/></svg>