<svg xmlns="http://www.w3.org/2000/svg" xmlns:xlink="http://www.w3.org/1999/xlink" width="224" zoomAndPan="magnify" viewBox="0 0 168 157.5" height="210" preserveAspectRatio="xMidYMid meet" version="1.0"><defs><clipPath id="2fd765afb6"><path d="M 4.796875 78.261719 L 40.148438 78.261719 L 40.148438 113.617188 L 4.796875 113.617188 Z M 4.796875 78.261719 " clip-rule="nonzero"/></clipPath><clipPath id="192cea8775"><path d="M 22.472656 78.261719 C 12.710938 78.261719 4.796875 86.175781 4.796875 95.9375 C 4.796875 105.699219 12.710938 113.617188 22.472656 113.617188 C 32.234375 113.617188 40.148438 105.699219 40.148438 95.9375 C 40.148438 86.175781 32.234375 78.261719 22.472656 78.261719 Z M 22.472656 78.261719 " clip-rule="nonzero"/></clipPath><clipPath id="c6bbbef838"><path d="M 0.265625 13 L 136 13 L 136 136 L 0.265625 136 Z M 0.265625 13 " clip-rule="nonzero"/></clipPath><clipPath id="0f8def4a7e"><path d="M 101 77 L 166.988281 77 L 166.988281 143 L 101 143 Z M 101 77 " clip-rule="nonzero"/></clipPath></defs><g clip-path="url(#2fd765afb6)"><g clip-path="url(#192cea8775)"><path fill="#19b1f7" d="M 4.796875 78.261719 L 40.148438 78.261719 L 40.148438 113.617188 L 4.796875 113.617188 Z M 4.796875 78.261719 " fill-opacity="1" fill-rule="nonzero"/></g></g><g clip-path="url(#c6bbbef838)"><path fill="#7ed957" d="M 116.691406 13.308594 L 113.015625 13.308594 L 113.015625 22.921875 C 113.015625 30.257812 107.0625 36.210938 99.726562 36.210938 L 91.339844 36.210938 C 84.003906 36.210938 78.054688 30.257812 78.054688 22.921875 L 78.054688 13.308594 L 58.128906 13.308594 L 58.128906 22.921875 C 58.128906 30.257812 52.175781 36.210938 44.839844 36.210938 L 36.453125 36.210938 C 29.117188 36.210938 23.167969 30.257812 23.167969 22.921875 L 23.167969 13.308594 L 19.664062 13.308594 C 9.003906 13.308594 0.265625 22.046875 0.265625 32.707031 L 0.265625 47.046875 L 135.933594 47.046875 L 135.933594 32.707031 C 135.917969 21.871094 127.355469 13.308594 116.691406 13.308594 Z M 0.441406 55.785156 L 0.441406 115.921875 C 0.441406 126.585938 9.175781 135.320312 19.839844 135.320312 L 82.605469 135.320312 C 83.480469 131.820312 85.40625 128.6875 87.855469 126.058594 L 135.933594 78.160156 L 135.933594 55.785156 Z M 91.515625 82.710938 L 67.914062 107.886719 C 66.691406 109.289062 64.941406 109.988281 63.015625 109.988281 C 61.089844 109.988281 59.335938 109.289062 58.113281 107.886719 L 45.015625 93.722656 C 42.566406 91.097656 42.738281 86.914062 45.367188 84.460938 C 47.992188 82.011719 52.175781 82.1875 54.628906 84.8125 L 63.015625 93.898438 L 81.710938 73.800781 C 84.164062 71.171875 88.347656 71 90.972656 73.449219 C 93.792969 75.902344 93.96875 79.910156 91.515625 82.710938 Z M 91.515625 82.710938 " fill-opacity="1" fill-rule="nonzero"/></g><path fill="#7ed957" d="M 36.628906 27.300781 L 45.015625 27.300781 C 47.46875 27.300781 49.394531 25.375 49.394531 22.921875 L 49.394531 4.382812 C 49.394531 1.929688 47.46875 0.00390625 45.015625 0.00390625 L 36.628906 0.00390625 C 34.179688 0.00390625 32.253906 1.929688 32.253906 4.382812 L 32.253906 22.90625 C 32.253906 25.375 34.179688 27.300781 36.628906 27.300781 Z M 36.628906 27.300781 " fill-opacity="1" fill-rule="nonzero"/><path fill="#7ed957" d="M 91.515625 27.300781 L 99.902344 27.300781 C 102.355469 27.300781 104.28125 25.375 104.28125 22.921875 L 104.28125 4.382812 C 104.28125 1.929688 102.355469 0.00390625 99.902344 0.00390625 L 91.515625 0.00390625 C 89.066406 0.00390625 87.140625 1.929688 87.140625 4.382812 L 87.140625 22.90625 C 86.980469 25.375 89.066406 27.300781 91.515625 27.300781 Z M 91.515625 27.300781 " fill-opacity="1" fill-rule="nonzero"/><path fill="#7ed957" d="M 94.144531 132.539062 C 92.566406 134.113281 91.515625 136.214844 90.992188 138.316406 L 88.015625 151.429688 C 87.488281 154.054688 89.765625 156.507812 92.390625 155.804688 L 105.503906 152.828125 C 107.78125 152.304688 109.707031 151.253906 111.28125 149.679688 L 112.332031 148.628906 L 95.019531 131.3125 Z M 94.144531 132.539062 " fill-opacity="1" fill-rule="nonzero"/><g clip-path="url(#0f8def4a7e)"><path fill="#7ed957" d="M 164.59375 87.789062 L 156.207031 79.402344 C 153.757812 76.949219 149.746094 76.949219 147.296875 79.402344 L 101.476562 125.183594 L 118.792969 142.5 L 164.769531 96.523438 C 167.21875 94.25 167.21875 90.222656 164.59375 87.789062 Z M 164.59375 87.789062 " fill-opacity="1" fill-rule="nonzero"/></g></svg>