<svg xmlns="http://www.w3.org/2000/svg" xmlns:xlink="http://www.w3.org/1999/xlink" width="185" zoomAndPan="magnify" viewBox="0 0 138.75 138.749998" height="185" preserveAspectRatio="xMidYMid meet" version="1.0"><defs><clipPath id="bae08ffcf0"><path d="M 0 0 L 137.75 0 L 137.75 137.75 L 0 137.75 Z M 0 0 " clip-rule="nonzero"/></clipPath></defs><g clip-path="url(#bae08ffcf0)"><path fill="#ffffff" d="M 120.488281 0.269531 L 17.28125 0.269531 C 7.796875 0.269531 0 8.054688 0 17.496094 L 0 120.230469 C 0 129.671875 7.796875 137.542969 17.28125 137.542969 L 68.636719 137.542969 L 68.636719 90.167969 L 51.679688 90.167969 L 51.679688 69.175781 L 68.636719 69.175781 L 68.636719 51.742188 C 68.636719 37.554688 80.4375 26.378906 94.6875 26.378906 L 112.238281 26.378906 L 112.238281 47.640625 L 103.289062 47.640625 C 98.542969 47.640625 94.746094 47.015625 94.746094 51.742188 L 94.746094 69.175781 L 116.191406 69.175781 L 107.589844 90.167969 L 94.746094 90.167969 L 94.746094 137.542969 L 120.488281 137.542969 C 129.976562 137.542969 137.808594 129.671875 137.808594 120.230469 L 137.808594 17.496094 C 137.808594 8.054688 129.976562 0.269531 120.488281 0.269531 Z M 120.488281 0.269531 " fill-opacity="1" fill-rule="nonzero"/></g></svg>