<svg xmlns="http://www.w3.org/2000/svg" xmlns:xlink="http://www.w3.org/1999/xlink" width="180" zoomAndPan="magnify" viewBox="0 0 135 135.000003" height="180" preserveAspectRatio="xMidYMid meet" version="1.0"><defs><clipPath id="74473ceda5"><path d="M 0.496094 0 L 134.503906 0 L 134.503906 134 L 0.496094 134 Z M 0.496094 0 " clip-rule="nonzero"/></clipPath></defs><g clip-path="url(#74473ceda5)"><path fill="#ffffff" d="M 67.746094 0 C 49.320312 0 47.109375 0 40.109375 0.367188 C 33.109375 0.367188 27.949219 1.84375 23.894531 3.316406 C 19.472656 5.160156 15.789062 7.371094 12.105469 11.054688 C 8.417969 14.738281 6.207031 18.425781 4.367188 22.847656 C 2.523438 27.269531 1.417969 32.058594 1.417969 39.058594 C 0.679688 46.796875 0.679688 49.007812 0.679688 67.066406 C 0.679688 85.492188 0.679688 87.703125 1.050781 94.703125 C 1.050781 101.703125 2.523438 106.863281 3.996094 110.917969 C 5.839844 115.339844 8.050781 119.023438 11.734375 122.707031 C 15.421875 126.394531 19.105469 128.605469 23.527344 130.445312 C 27.949219 132.289062 32.738281 133.394531 39.742188 133.394531 C 46.742188 133.394531 49.320312 133.761719 67.378906 133.761719 C 85.433594 133.761719 88.011719 133.761719 95.015625 133.394531 C 102.015625 133.394531 107.175781 131.921875 111.230469 130.445312 C 115.652344 128.605469 119.335938 126.394531 123.019531 122.707031 C 126.707031 119.023438 128.917969 115.339844 130.757812 110.917969 C 132.234375 106.496094 133.707031 101.703125 133.707031 94.703125 C 133.707031 87.703125 134.074219 85.121094 134.074219 67.066406 C 134.074219 48.640625 134.074219 46.429688 133.707031 39.429688 C 133.707031 32.425781 132.234375 27.269531 130.757812 23.214844 C 128.917969 18.792969 126.707031 15.109375 123.019531 11.421875 C 119.335938 7.738281 115.652344 5.527344 111.230469 3.683594 C 106.804688 1.84375 102.015625 0.738281 95.015625 0.738281 C 88.382812 0 86.171875 0 67.746094 0 Z M 61.851562 12.160156 C 63.691406 12.160156 65.535156 12.160156 67.746094 12.160156 C 85.800781 12.160156 87.644531 12.160156 95.015625 12.527344 C 101.648438 12.527344 104.964844 14.003906 107.542969 14.738281 C 110.859375 15.84375 113.070312 17.320312 115.28125 19.898438 C 117.492188 22.109375 118.96875 24.320312 120.441406 27.636719 C 121.179688 29.847656 122.285156 33.53125 122.652344 40.164062 C 122.652344 47.167969 123.019531 49.378906 123.019531 67.433594 C 123.019531 85.492188 123.019531 87.332031 122.652344 94.703125 C 122.652344 101.335938 121.179688 104.652344 120.441406 107.230469 C 119.335938 110.546875 117.863281 112.757812 115.28125 114.96875 C 113.070312 117.179688 110.859375 118.65625 107.542969 120.128906 C 105.332031 121.234375 101.648438 121.972656 95.015625 122.339844 C 88.011719 122.339844 85.800781 122.707031 67.746094 122.707031 C 49.691406 122.707031 47.847656 122.707031 40.476562 122.339844 C 33.84375 122.339844 30.527344 120.867188 27.949219 120.128906 C 24.632812 119.023438 22.421875 117.550781 20.210938 114.96875 C 18 112.757812 16.527344 110.546875 15.050781 107.230469 C 14.316406 105.019531 13.210938 101.335938 12.839844 94.703125 C 12.839844 87.703125 12.472656 85.492188 12.472656 67.433594 C 12.472656 49.378906 12.472656 47.535156 12.839844 40.164062 C 12.839844 33.53125 14.316406 30.214844 15.050781 27.636719 C 16.15625 24.320312 17.632812 22.109375 20.210938 19.898438 C 22.421875 17.6875 24.632812 16.214844 27.949219 14.738281 C 30.160156 13.632812 33.84375 12.898438 40.476562 12.527344 C 46.742188 12.527344 48.953125 12.527344 61.480469 12.160156 Z M 67.746094 32.796875 C 48.585938 32.796875 33.109375 48.273438 33.109375 67.433594 C 33.109375 86.597656 48.585938 102.074219 67.746094 102.074219 C 86.90625 102.074219 102.382812 86.597656 102.382812 67.433594 C 102.382812 48.273438 86.90625 32.796875 67.746094 32.796875 Z M 67.746094 44.957031 C 80.273438 44.957031 90.222656 54.90625 90.222656 67.433594 C 90.222656 79.964844 80.273438 89.914062 67.746094 89.914062 C 55.21875 89.914062 45.269531 79.964844 45.269531 67.433594 C 45.269531 54.90625 55.21875 44.957031 67.746094 44.957031 Z M 67.746094 44.957031 " fill-opacity="1" fill-rule="nonzero"/></g></svg>