<svg xmlns="http://www.w3.org/2000/svg" xmlns:xlink="http://www.w3.org/1999/xlink" width="171" zoomAndPan="magnify" viewBox="0 0 128.25 128.250003" height="171" preserveAspectRatio="xMidYMid meet" version="1.0"><defs><clipPath id="35113d7b59"><path d="M 0 0 L 127.503906 0 L 127.503906 127.503906 L 0 127.503906 Z M 0 0 " clip-rule="nonzero"/></clipPath></defs><g clip-path="url(#35113d7b59)"><path fill="#ffffff" d="M 127.421875 108.046875 C 127.421875 118.742188 118.753906 127.410156 108.058594 127.410156 L 19.367188 127.410156 C 8.671875 127.410156 0.00390625 118.742188 0.00390625 108.046875 L 0.00390625 19.355469 C 0.00390625 8.660156 8.671875 -0.0078125 19.367188 -0.0078125 L 108.058594 -0.0078125 C 118.753906 -0.0078125 127.421875 8.660156 127.421875 19.355469 Z M 127.421875 108.046875 " fill-opacity="1" fill-rule="nonzero"/></g><path fill="#041441" d="M 50.386719 45.453125 C 50.386719 46.078125 50.328125 46.695312 50.207031 47.308594 C 50.082031 47.921875 49.902344 48.515625 49.664062 49.09375 C 49.425781 49.671875 49.132812 50.21875 48.785156 50.738281 C 48.4375 51.257812 48.042969 51.738281 47.601562 52.183594 C 47.160156 52.625 46.679688 53.019531 46.160156 53.367188 C 45.636719 53.714844 45.089844 54.007812 44.511719 54.246094 C 43.933594 54.484375 43.339844 54.664062 42.726562 54.789062 C 42.113281 54.910156 41.496094 54.96875 40.871094 54.96875 C 40.246094 54.96875 39.625 54.910156 39.011719 54.789062 C 38.398438 54.664062 37.804688 54.484375 37.226562 54.246094 C 36.648438 54.007812 36.101562 53.714844 35.582031 53.367188 C 35.0625 53.019531 34.582031 52.625 34.140625 52.183594 C 33.699219 51.738281 33.304688 51.257812 32.957031 50.738281 C 32.609375 50.21875 32.316406 49.671875 32.074219 49.09375 C 31.835938 48.515625 31.65625 47.921875 31.535156 47.308594 C 31.414062 46.695312 31.351562 46.078125 31.351562 45.453125 C 31.351562 44.828125 31.414062 44.207031 31.535156 43.59375 C 31.65625 42.980469 31.835938 42.386719 32.074219 41.808594 C 32.316406 41.230469 32.609375 40.683594 32.957031 40.164062 C 33.304688 39.644531 33.699219 39.164062 34.140625 38.722656 C 34.582031 38.277344 35.0625 37.882812 35.582031 37.539062 C 36.101562 37.191406 36.648438 36.898438 37.226562 36.65625 C 37.804688 36.417969 38.398438 36.238281 39.011719 36.117188 C 39.625 35.992188 40.246094 35.933594 40.871094 35.933594 C 41.496094 35.933594 42.113281 35.992188 42.726562 36.117188 C 43.339844 36.238281 43.933594 36.417969 44.511719 36.65625 C 45.089844 36.898438 45.636719 37.191406 46.160156 37.539062 C 46.679688 37.882812 47.160156 38.277344 47.601562 38.722656 C 48.042969 39.164062 48.4375 39.644531 48.785156 40.164062 C 49.132812 40.683594 49.425781 41.230469 49.664062 41.808594 C 49.902344 42.386719 50.082031 42.980469 50.207031 43.59375 C 50.328125 44.207031 50.386719 44.828125 50.386719 45.453125 Z M 50.386719 45.453125 " fill-opacity="1" fill-rule="nonzero"/><path fill="#041441" d="M 32.664062 61.988281 L 49.015625 61.988281 L 49.015625 114.59375 L 32.664062 114.59375 Z M 32.664062 61.988281 " fill-opacity="1" fill-rule="nonzero"/><path fill="#041441" d="M 59.300781 61.988281 L 74.867188 61.988281 L 74.867188 114.59375 L 59.300781 114.59375 Z M 59.300781 61.988281 " fill-opacity="1" fill-rule="nonzero"/><path fill="#041441" d="M 59.972656 89.996094 L 75.539062 89.996094 L 75.539062 114.59375 L 59.972656 114.59375 Z M 59.972656 89.996094 " fill-opacity="1" fill-rule="nonzero"/><path fill="#041441" d="M 75.539062 89.996094 C 75.539062 89.996094 75.296875 83.171875 77.09375 79.625 C 77.09375 79.625 78.894531 75.257812 84.550781 75.230469 C 84.550781 75.230469 91.183594 74.070312 93.085938 80.65625 C 93.085938 80.65625 93.804688 84.304688 93.804688 85.847656 C 93.804688 87.390625 93.859375 114.59375 93.859375 114.59375 L 110.160156 114.59375 L 110.160156 84.460938 C 110.160156 84.460938 111.34375 67.4375 101.125 62.777344 C 101.125 62.777344 84.328125 55.234375 75.210938 69.085938 C 75.210938 69.085938 73.222656 70.453125 72.945312 66.617188 C 72.671875 62.777344 70.339844 72.511719 70.273438 72.71875 C 70.203125 72.921875 72.945312 92.121094 72.945312 92.121094 Z M 75.539062 89.996094 " fill-opacity="1" fill-rule="nonzero"/></svg>