<svg xmlns="http://www.w3.org/2000/svg" xmlns:xlink="http://www.w3.org/1999/xlink" width="200" zoomAndPan="magnify" viewBox="0 0 150 84.749999" height="113" preserveAspectRatio="xMidYMid meet" version="1.0"><defs><g/><clipPath id="4d5fbd2e42"><path d="M 0.21875 6.183594 L 70.316406 6.183594 L 70.316406 76.28125 L 0.21875 76.28125 Z M 0.21875 6.183594 " clip-rule="nonzero"/></clipPath></defs><g clip-path="url(#4d5fbd2e42)"><path fill="#90c5b3" d="M 0.21875 6.183594 L 70.316406 6.183594 L 70.316406 76.28125 L 0.21875 76.28125 Z M 0.21875 6.183594 " fill-opacity="1" fill-rule="nonzero"/></g><g fill="#ffffff" fill-opacity="1"><g transform="translate(20.219885, 57.792978)"><g><path d="M 11 -18.09375 L 13.21875 -18.09375 C 15.394531 -18.09375 17.003906 -18.457031 18.046875 -19.1875 C 19.085938 -19.914062 19.609375 -21.054688 19.609375 -22.609375 C 19.609375 -24.148438 19.078125 -25.25 18.015625 -25.90625 C 16.953125 -26.5625 15.304688 -26.890625 13.078125 -26.890625 L 11 -26.890625 Z M 11 -12.484375 L 11 0 L 4.09375 0 L 4.09375 -32.53125 L 13.578125 -32.53125 C 17.992188 -32.53125 21.265625 -31.722656 23.390625 -30.109375 C 25.515625 -28.503906 26.578125 -26.066406 26.578125 -22.796875 C 26.578125 -20.878906 26.046875 -19.171875 24.984375 -17.671875 C 23.929688 -16.179688 22.441406 -15.015625 20.515625 -14.171875 C 25.410156 -6.859375 28.601562 -2.132812 30.09375 0 L 22.4375 0 L 14.671875 -12.484375 Z M 11 -12.484375 "/></g></g></g><g fill="#90c5b3" fill-opacity="1"><g transform="translate(76.611054, 60.565636)"><g><path d="M 3.265625 -31.3125 C 3.265625 -33.519531 4.5 -34.625 6.96875 -34.625 C 9.425781 -34.625 10.65625 -33.519531 10.65625 -31.3125 C 10.65625 -30.257812 10.347656 -29.4375 9.734375 -28.84375 C 9.117188 -28.257812 8.195312 -27.96875 6.96875 -27.96875 C 4.5 -27.96875 3.265625 -29.082031 3.265625 -31.3125 Z M 10.34375 0 L 3.5625 0 L 3.5625 -24.875 L 10.34375 -24.875 Z M 10.34375 0 "/></g></g></g><g fill="#90c5b3" fill-opacity="1"><g transform="translate(90.517518, 60.565636)"><g><path d="M 20.875 0 L 1.21875 0 L 1.21875 -4 L 12.75 -19.703125 L 1.90625 -19.703125 L 1.90625 -24.875 L 20.46875 -24.875 L 20.46875 -20.46875 L 9.265625 -5.1875 L 20.875 -5.1875 Z M 20.875 0 "/></g></g></g><g fill="#90c5b3" fill-opacity="1"><g transform="translate(112.74561, 60.565636)"><g><path d="M 20.875 0 L 1.21875 0 L 1.21875 -4 L 12.75 -19.703125 L 1.90625 -19.703125 L 1.90625 -24.875 L 20.46875 -24.875 L 20.46875 -20.46875 L 9.265625 -5.1875 L 20.875 -5.1875 Z M 20.875 0 "/></g></g></g></svg>