<svg xmlns="http://www.w3.org/2000/svg" xmlns:xlink="http://www.w3.org/1999/xlink" width="229" zoomAndPan="magnify" viewBox="0 0 171.75 157.5" height="210" preserveAspectRatio="xMidYMid meet" version="1.0"><defs><clipPath id="a794c32ede"><path d="M 81.578125 37.929688 L 116.929688 37.929688 L 116.929688 73.285156 L 81.578125 73.285156 Z M 81.578125 37.929688 " clip-rule="nonzero"/></clipPath><clipPath id="c0f0dd2d76"><path d="M 99.253906 37.929688 C 89.492188 37.929688 81.578125 45.84375 81.578125 55.605469 C 81.578125 65.371094 89.492188 73.285156 99.253906 73.285156 C 109.015625 73.285156 116.929688 65.371094 116.929688 55.605469 C 116.929688 45.84375 109.015625 37.929688 99.253906 37.929688 Z M 99.253906 37.929688 " clip-rule="nonzero"/></clipPath><clipPath id="3eebb7e02c"><path d="M 0.148438 0 L 170.605469 0 L 170.605469 156.253906 L 0.148438 156.253906 Z M 0.148438 0 " clip-rule="nonzero"/></clipPath><clipPath id="9c348d6fee"><path d="M 79 51 L 170.605469 51 L 170.605469 156.253906 L 79 156.253906 Z M 79 51 " clip-rule="nonzero"/></clipPath></defs><g clip-path="url(#a794c32ede)"><g clip-path="url(#c0f0dd2d76)"><path fill="#19b1f7" d="M 81.578125 37.929688 L 116.929688 37.929688 L 116.929688 73.285156 L 81.578125 73.285156 Z M 81.578125 37.929688 " fill-opacity="1" fill-rule="nonzero"/></g></g><path fill="#d4d4d2" d="M 168.082031 113.824219 L 168.082031 119.515625 C 168.082031 125.808594 162.992188 130.898438 156.699219 130.898438 L 85.558594 130.898438 L 85.558594 125.207031 C 87.125 125.207031 88.402344 123.929688 88.402344 122.363281 C 88.402344 120.796875 87.125 119.515625 85.558594 119.515625 L 85.558594 113.824219 L 168.082031 113.824219 " fill-opacity="1" fill-rule="nonzero"/><path fill="#8c52ff" d="M 168.082031 25.609375 L 168.082031 113.824219 L 123.917969 113.824219 L 140.957031 25.609375 L 168.082031 25.609375 " fill-opacity="1" fill-rule="nonzero"/><path fill="#d4d4d2" d="M 168.082031 14.226562 L 168.082031 25.609375 L 140.957031 25.609375 L 145.082031 2.84375 L 156.699219 2.84375 C 162.992188 2.84375 168.082031 7.9375 168.082031 14.226562 " fill-opacity="1" fill-rule="nonzero"/><path fill="#d4d4d2" d="M 145.082031 2.84375 L 140.957031 25.609375 L 3.035156 25.609375 L 3.035156 14.226562 C 3.035156 7.9375 8.125 2.84375 14.417969 2.84375 L 145.082031 2.84375 " fill-opacity="1" fill-rule="nonzero"/><path fill="#cfb7ff" d="M 140.957031 25.609375 L 123.917969 113.824219 L 3.035156 113.824219 L 3.035156 25.609375 L 140.957031 25.609375 " fill-opacity="1" fill-rule="nonzero"/><path fill="#68696b" d="M 122.550781 153.664062 C 106.957031 153.664062 64.070312 153.664062 48.5625 153.664062 C 56.421875 153.664062 62.792969 147.296875 62.792969 139.4375 L 62.792969 130.898438 L 108.324219 130.898438 L 108.324219 139.4375 C 108.324219 147.296875 114.691406 153.664062 122.550781 153.664062 " fill-opacity="1" fill-rule="nonzero"/><path fill="#d4d4d2" d="M 85.558594 119.515625 C 87.125 119.515625 88.402344 120.796875 88.402344 122.363281 C 88.402344 123.929688 87.125 125.207031 85.558594 125.207031 C 83.992188 125.207031 82.710938 123.929688 82.710938 122.363281 C 82.710938 120.796875 83.992188 119.515625 85.558594 119.515625 " fill-opacity="1" fill-rule="nonzero"/><path fill="#d4d4d2" d="M 85.558594 125.207031 L 85.558594 130.898438 L 14.417969 130.898438 C 8.125 130.898438 3.035156 125.808594 3.035156 119.515625 L 3.035156 113.824219 L 85.558594 113.824219 L 85.558594 119.515625 C 83.992188 119.515625 82.710938 120.796875 82.710938 122.363281 C 82.710938 123.929688 83.992188 125.207031 85.558594 125.207031 " fill-opacity="1" fill-rule="nonzero"/><path fill="#8c52ff" d="M 22.953125 39.839844 L 22.953125 45.53125 C 22.953125 48.652344 20.398438 51.222656 17.261719 51.222656 C 14.128906 51.222656 11.570312 48.652344 11.570312 45.53125 L 11.570312 39.839844 C 11.570312 36.714844 14.128906 34.148438 17.261719 34.148438 C 18.828125 34.148438 20.253906 34.769531 21.273438 35.828125 C 22.332031 36.847656 22.953125 38.273438 22.953125 39.839844 " fill-opacity="1" fill-rule="nonzero"/><path fill="#8c52ff" d="M 17.261719 56.914062 C 20.398438 56.914062 22.953125 59.480469 22.953125 62.605469 C 22.953125 65.726562 20.398438 68.296875 17.261719 68.296875 C 14.128906 68.296875 11.570312 65.726562 11.570312 62.605469 C 11.570312 59.480469 14.128906 56.914062 17.261719 56.914062 " fill-opacity="1" fill-rule="nonzero"/><path fill="#68696b" d="M 145.316406 59.757812 L 145.316406 71.140625 L 125.398438 71.140625 C 123.230469 71.140625 121.363281 72.363281 120.382812 74.132812 L 119.707031 73.988281 L 82.710938 73.988281 L 82.710938 59.757812 C 82.710938 56.636719 85.28125 54.066406 88.402344 54.066406 L 139.625 54.066406 C 142.75 54.066406 145.316406 56.636719 145.316406 59.757812 " fill-opacity="1" fill-rule="nonzero"/><path fill="#68696b" d="M 168.082031 142.28125 L 168.082031 147.972656 C 168.082031 151.109375 165.515625 153.664062 162.390625 153.664062 L 125.398438 153.664062 C 122.273438 153.664062 119.707031 151.109375 119.707031 147.972656 L 119.707031 142.28125 L 168.082031 142.28125 " fill-opacity="1" fill-rule="nonzero"/><path fill="#68696b" d="M 119.707031 147.972656 C 119.707031 151.109375 122.273438 153.664062 125.398438 153.664062 L 88.402344 153.664062 C 85.28125 153.664062 82.710938 151.109375 82.710938 147.972656 L 82.710938 136.589844 L 119.707031 136.589844 L 119.707031 147.972656 " fill-opacity="1" fill-rule="nonzero"/><path fill="#68696b" d="M 168.082031 76.832031 L 168.082031 82.523438 L 119.707031 82.523438 L 119.707031 76.832031 C 119.707031 75.867188 119.960938 74.933594 120.382812 74.132812 C 121.363281 72.363281 123.230469 71.140625 125.398438 71.140625 L 162.390625 71.140625 C 165.515625 71.140625 168.082031 73.710938 168.082031 76.832031 " fill-opacity="1" fill-rule="nonzero"/><path fill="#cfb7ff" d="M 168.082031 82.523438 L 168.082031 142.28125 L 119.707031 142.28125 L 119.707031 82.523438 L 168.082031 82.523438 " fill-opacity="1" fill-rule="nonzero"/><path fill="#8c52ff" d="M 168.082031 82.523438 L 168.082031 142.28125 L 142.472656 142.28125 L 153.851562 82.523438 L 168.082031 82.523438 " fill-opacity="1" fill-rule="nonzero"/><path fill="#cfb7ff" d="M 119.707031 76.832031 L 119.707031 136.589844 L 82.710938 136.589844 L 82.710938 73.988281 L 119.707031 73.988281 L 120.382812 74.132812 C 119.960938 74.933594 119.707031 75.867188 119.707031 76.832031 " fill-opacity="1" fill-rule="nonzero"/><path fill="#8c52ff" d="M 119.707031 76.832031 L 119.707031 136.589844 L 102.632812 136.589844 L 114.015625 73.988281 L 119.707031 73.988281 L 120.382812 74.132812 C 119.960938 74.933594 119.707031 75.867188 119.707031 76.832031 " fill-opacity="1" fill-rule="nonzero"/><g clip-path="url(#3eebb7e02c)"><path fill="#100f0d" d="M 5.878906 22.765625 L 5.878906 14.226562 C 5.878906 9.515625 9.703125 5.691406 14.417969 5.691406 L 156.699219 5.691406 C 161.410156 5.691406 165.234375 9.515625 165.234375 14.226562 L 165.234375 22.765625 Z M 156.699219 0 L 14.417969 0 C 6.570312 0 0.1875 6.378906 0.1875 14.226562 L 0.1875 119.515625 C 0.1875 127.367188 6.570312 133.746094 14.417969 133.746094 L 59.945312 133.746094 L 59.945312 139.4375 C 59.945312 145.71875 54.84375 150.820312 48.5625 150.820312 L 42.871094 150.820312 L 42.871094 156.511719 L 74.175781 156.511719 L 74.175781 150.820312 L 61.257812 150.820312 C 63.96875 147.796875 65.636719 143.816406 65.636719 139.4375 L 65.636719 133.746094 L 74.175781 133.746094 L 74.175781 128.054688 L 14.417969 128.054688 C 9.703125 128.054688 5.878906 124.230469 5.878906 119.515625 L 5.878906 116.671875 L 74.175781 116.671875 L 74.175781 110.980469 L 5.878906 110.980469 L 5.878906 28.457031 L 165.234375 28.457031 L 165.234375 62.605469 L 170.925781 62.605469 L 170.925781 14.226562 C 170.925781 6.378906 164.546875 0 156.699219 0 " fill-opacity="1" fill-rule="nonzero"/></g><path fill="#100f0d" d="M 14.417969 17.074219 L 20.109375 17.074219 L 20.109375 11.382812 L 14.417969 11.382812 L 14.417969 17.074219 " fill-opacity="1" fill-rule="nonzero"/><path fill="#100f0d" d="M 25.800781 17.074219 L 31.488281 17.074219 L 31.488281 11.382812 L 25.800781 11.382812 L 25.800781 17.074219 " fill-opacity="1" fill-rule="nonzero"/><path fill="#100f0d" d="M 37.179688 17.074219 L 42.871094 17.074219 L 42.871094 11.382812 L 37.179688 11.382812 L 37.179688 17.074219 " fill-opacity="1" fill-rule="nonzero"/><path fill="#100f0d" d="M 96.941406 68.296875 L 96.941406 62.605469 L 91.25 62.605469 L 91.25 68.296875 L 96.941406 68.296875 " fill-opacity="1" fill-rule="nonzero"/><path fill="#100f0d" d="M 108.324219 68.296875 L 108.324219 62.605469 L 102.632812 62.605469 L 102.632812 68.296875 L 108.324219 68.296875 " fill-opacity="1" fill-rule="nonzero"/><g clip-path="url(#9c348d6fee)"><path fill="#100f0d" d="M 165.234375 119.515625 L 165.234375 139.4375 L 122.550781 139.4375 L 122.550781 85.371094 L 159.542969 85.371094 L 159.542969 79.679688 L 122.550781 79.679688 L 122.550781 76.832031 C 122.550781 75.265625 123.828125 73.988281 125.398438 73.988281 L 162.390625 73.988281 C 163.957031 73.988281 165.234375 75.265625 165.234375 76.832031 Z M 162.390625 150.820312 L 125.398438 150.820312 C 123.828125 150.820312 122.550781 149.542969 122.550781 147.972656 L 122.550781 145.128906 L 165.234375 145.128906 L 165.234375 147.972656 C 165.234375 149.542969 163.957031 150.820312 162.390625 150.820312 Z M 162.390625 68.296875 L 125.398438 68.296875 C 120.683594 68.296875 116.859375 72.121094 116.859375 76.832031 L 116.859375 147.972656 C 116.859375 148.972656 117.070312 149.929688 117.382812 150.820312 L 88.402344 150.820312 C 86.835938 150.820312 85.558594 149.542969 85.558594 147.972656 L 85.558594 139.4375 L 111.167969 139.4375 L 111.167969 133.746094 L 85.558594 133.746094 L 85.558594 76.832031 L 111.167969 76.832031 L 111.167969 71.140625 L 85.558594 71.140625 L 85.558594 59.757812 C 85.558594 58.191406 86.835938 56.914062 88.402344 56.914062 L 139.625 56.914062 C 141.191406 56.914062 142.472656 58.191406 142.472656 59.757812 L 142.472656 62.605469 L 148.160156 62.605469 L 148.160156 59.757812 C 148.160156 55.046875 144.339844 51.222656 139.625 51.222656 L 88.402344 51.222656 C 83.691406 51.222656 79.867188 55.046875 79.867188 59.757812 L 79.867188 147.972656 C 79.867188 152.6875 83.691406 156.511719 88.402344 156.511719 L 162.390625 156.511719 C 167.101562 156.511719 170.925781 152.6875 170.925781 147.972656 L 170.925781 76.832031 C 170.925781 72.121094 167.101562 68.296875 162.390625 68.296875 " fill-opacity="1" fill-rule="nonzero"/></g></svg>