<svg xmlns="http://www.w3.org/2000/svg" xmlns:xlink="http://www.w3.org/1999/xlink" width="192" zoomAndPan="magnify" viewBox="0 0 144 143.999998" height="192" preserveAspectRatio="xMidYMid meet" version="1.0"><defs><clipPath id="375daadda4"><path d="M 85 12 L 112 12 L 112 39 L 85 39 Z M 85 12 " clip-rule="nonzero"/></clipPath><clipPath id="75951f5d29"><path d="M 84.359375 14.382812 L 109.679688 11.148438 L 112.914062 36.46875 L 87.589844 39.703125 Z M 84.359375 14.382812 " clip-rule="nonzero"/></clipPath><clipPath id="87d4c065ac"><path d="M 97.019531 12.765625 C 90.027344 13.660156 85.082031 20.050781 85.976562 27.042969 C 86.867188 34.035156 93.261719 38.980469 100.25 38.085938 C 107.242188 37.195312 112.1875 30.800781 111.296875 23.808594 C 110.402344 16.816406 104.011719 11.875 97.019531 12.765625 Z M 97.019531 12.765625 " clip-rule="nonzero"/></clipPath><clipPath id="8aeda08504"><path d="M 0 0 L 143.25 0 L 143.25 143.25 L 0 143.25 Z M 0 0 " clip-rule="nonzero"/></clipPath></defs><g clip-path="url(#375daadda4)"><g clip-path="url(#75951f5d29)"><g clip-path="url(#87d4c065ac)"><path fill="#d4d4d2" d="M 84.359375 14.382812 L 109.679688 11.148438 L 112.914062 36.46875 L 87.589844 39.703125 Z M 84.359375 14.382812 " fill-opacity="1" fill-rule="nonzero"/></g></g></g><g clip-path="url(#8aeda08504)"><path fill="#ffffff" d="M 71.777344 0 C 32.128906 0 0 32.128906 0 71.777344 C 0 111.425781 32.128906 143.554688 71.777344 143.554688 C 111.425781 143.554688 143.554688 111.425781 143.554688 71.777344 C 143.492188 32.128906 111.363281 0 71.777344 0 Z M 113.664062 55.621094 C 113.664062 55.621094 114.90625 83.085938 94.023438 100.117188 C 62.765625 125.53125 29.023438 104.902344 29.023438 104.902344 C 29.023438 104.902344 37.226562 105.023438 44.496094 103.097656 C 51.703125 101.171875 56.925781 96.449219 56.925781 96.449219 C 56.925781 96.449219 49.03125 94.832031 44.929688 91.851562 C 40.828125 88.867188 39.214844 83.148438 39.214844 83.148438 C 39.214844 83.148438 41.949219 83.398438 43.625 83.335938 C 45.367188 83.273438 47.417969 82.464844 47.417969 82.464844 C 47.417969 82.464844 41.761719 81.78125 36.480469 75.878906 C 32.316406 71.21875 32.625 63.449219 32.625 63.449219 C 32.625 63.449219 35.113281 64.941406 36.417969 65.253906 C 37.722656 65.625 40.269531 65.625 40.269531 65.625 C 40.269531 65.625 35.296875 62.703125 33.125 55.058594 C 30.949219 47.480469 35.113281 39.773438 35.113281 39.773438 C 35.113281 39.773438 42.507812 48.722656 53.445312 54.4375 C 64.382812 60.15625 74.699219 59.96875 74.699219 59.96875 C 74.699219 59.96875 73.207031 55.433594 75.816406 48.722656 C 78.425781 42.011719 84.332031 37.164062 93.339844 36.480469 C 102.351562 35.734375 108.132812 42.570312 108.132812 42.570312 C 108.132812 42.570312 110.929688 42.070312 114.097656 40.890625 C 117.265625 39.773438 120.4375 38.28125 120.4375 38.28125 C 120.4375 38.28125 119.316406 41.699219 117.144531 44.371094 C 114.96875 47.042969 112.542969 48.660156 112.542969 48.660156 C 112.542969 48.660156 115.402344 48.472656 118.261719 47.664062 C 121.121094 46.855469 122.675781 46.050781 122.675781 46.050781 C 119.378906 51.519531 113.664062 55.621094 113.664062 55.621094 Z M 113.664062 55.621094 " fill-opacity="1" fill-rule="nonzero"/></g></svg>