<svg xmlns="http://www.w3.org/2000/svg" xmlns:xlink="http://www.w3.org/1999/xlink" width="202" zoomAndPan="magnify" viewBox="0 0 151.5 151.499993" height="202" preserveAspectRatio="xMidYMid meet" version="1.0"><path fill="#ffffff" d="M 75.378906 0 C 33.742188 0 0 33.742188 0 75.378906 C 0 117.015625 33.742188 150.757812 75.378906 150.757812 C 117.015625 150.757812 150.757812 117.015625 150.757812 75.378906 C 150.691406 33.742188 116.949219 0 75.378906 0 Z M 118.777344 96.457031 C 117.929688 102.003906 113.101562 106.050781 107.488281 106.050781 L 43.203125 106.050781 C 37.589844 106.050781 32.761719 102.003906 31.914062 96.457031 C 31.128906 91.300781 30.347656 84.125 30.28125 75.3125 C 30.347656 66.503906 31.066406 59.390625 31.914062 54.167969 C 32.761719 48.621094 37.589844 44.574219 43.203125 44.574219 L 107.488281 44.574219 C 113.101562 44.574219 117.929688 48.621094 118.777344 54.167969 C 119.5625 59.324219 120.34375 66.503906 120.410156 75.3125 C 120.34375 84.125 119.5625 91.300781 118.777344 96.457031 Z M 118.777344 96.457031 " fill-opacity="1" fill-rule="nonzero"/><path fill="#ffffff" d="M 65.851562 63.109375 L 65.851562 87.582031 L 88.625 75.378906 Z M 65.851562 63.109375 " fill-opacity="1" fill-rule="nonzero"/></svg>